<svg width="25" height="26" viewBox="0 0 25 26" fill="none" xmlns="http://www.w3.org/2000/svg">
<g clip-path="url(#clip0_70_267)">
<path d="M24.7029 13.2338C24.7029 12.2095 24.6198 11.4621 24.4399 10.687H12.7441V15.3099H19.6093C19.471 16.4588 18.7235 18.1889 17.0626 19.3515L17.0393 19.5063L20.7373 22.3711L20.9935 22.3966C23.3464 20.2236 24.7029 17.0262 24.7029 13.2338Z" fill="#4285F4"/>
<path d="M12.7436 25.4142C16.1069 25.4142 18.9305 24.3069 20.9929 22.3969L17.062 19.3517C16.0101 20.0853 14.5982 20.5974 12.7436 20.5974C9.44939 20.5974 6.6535 18.4244 5.65684 15.4209L5.51075 15.4333L1.66552 18.4092L1.61523 18.549C3.66371 22.6182 7.87144 25.4142 12.7436 25.4142Z" fill="#34A853"/>
<path d="M5.65743 15.4209C5.39446 14.6458 5.24226 13.8153 5.24226 12.9572C5.24226 12.099 5.39446 11.2685 5.6436 10.4934L5.63663 10.3284L1.74322 7.30469L1.61583 7.36528C0.771556 9.05392 0.287109 10.9502 0.287109 12.9572C0.287109 14.9641 0.771556 16.8603 1.61583 18.549L5.65743 15.4209Z" fill="#FBBC05"/>
<path d="M12.7436 5.3167C15.0827 5.3167 16.6606 6.3271 17.5603 7.17147L21.0759 3.73884C18.9168 1.73187 16.1069 0.5 12.7436 0.5C7.87144 0.5 3.66371 3.2959 1.61523 7.36517L5.643 10.4933C6.6535 7.48979 9.44939 5.3167 12.7436 5.3167Z" fill="#EB4335"/>
</g>
<defs>
<clipPath id="clip0_70_267">
<rect width="24.43" height="25" fill="white" transform="translate(0.285156 0.5)"/>
</clipPath>
</defs>
</svg>
