<svg width="112" height="132" viewBox="0 0 112 132" fill="none" xmlns="http://www.w3.org/2000/svg">
<g clip-path="url(#clip0_76_348)">
<g style="mix-blend-mode:hard-light" filter="url(#filter0_f_76_348)">
<path d="M12.9057 68.0222C24.0349 46.4963 39.7693 37.271 55.5037 7.67285C70.8542 38.0397 87.7397 47.2651 98.4853 66.4846C111.149 108.768 67.7841 109.152 58.9576 92.2388C57.3104 104.905 72.773 122.99 72.773 122.99H39.7692C39.7692 122.99 53.8563 104.385 51.6661 92.2388C46.2935 106.846 0.625201 111.458 12.9057 68.0222Z" stroke="white" stroke-opacity="0.16" stroke-linejoin="round"/>
</g>
<path d="M13.9707 67.8547C24.7919 46.9587 40.0907 38.0032 55.3896 9.27124C70.3152 38.7495 86.7334 47.7049 97.1815 66.3621C109.495 107.408 67.3301 107.781 58.7479 91.3626C57.1463 103.658 72.1809 121.214 72.1809 121.214H40.0907C40.0907 121.214 53.7878 103.153 51.6582 91.3626C46.4343 105.542 2.03013 110.02 13.9707 67.8547Z" fill="#0A0A0A" stroke="white" stroke-width="0.621358" stroke-linejoin="round"/>
<path d="M19.1131 67.5409C28.8962 47.7047 42.0651 41.2717 55.5085 15.9875C68.6238 41.9284 83.0507 49.8092 92.2316 66.2275C103.052 102.348 64.4234 100.213 56.8822 85.7652C54.27 112.631 61.733 116.736 61.733 116.736H48.673C48.673 116.736 56.8822 113.751 54.27 85.7652C49.7922 98.4521 8.6207 104.646 19.1131 67.5409Z" fill="#0A0A0A" stroke="white" stroke-width="0.621358" stroke-linejoin="round"/>
<path d="M22.6064 67.4362C31.2077 50.6823 43.3682 43.502 55.5288 20.4653C67.3925 44.1004 80.4427 51.2806 88.7475 66.2395C98.5351 99.149 67.4351 97.4365 60.6135 84.2727L55.7626 81.2876L50.1655 84.2727C46.0132 95.6415 13.1152 101.243 22.6064 67.4362Z" fill="#0A0A0A" stroke="white" stroke-width="0.621358" stroke-linejoin="round"/>
<path d="M39.7175 72.7056H43.449V90.814L39.7175 92.109V72.7056Z" fill="white"/>
<path d="M45.6877 70.4666H48.6729L48.2997 87.6311L45.6877 89.87V70.4666Z" fill="white"/>
<path d="M50.9118 64.4963H53.897V82.3512L50.1655 84.2729L50.9118 64.4963Z" fill="white"/>
<path d="M57.6282 64.4963H61.3596L60.9865 84.646L57.6282 82.1308V64.4963Z" fill="white"/>
<path d="M63.5984 69.7202H66.5835V89.8699L63.5984 88.2138V69.7202Z" fill="white"/>
<path d="M68.8225 72.7055L72.1808 71.9592V92.4821L68.8225 91.3626V72.7055Z" fill="white"/>
<path d="M50.9117 65.8543C50.9117 68.8862 49.6176 71.5608 47.6467 73.1485C47.409 73.34 47.1614 73.5157 46.9051 73.6744C45.8773 74.3103 44.7086 74.5644 43.4688 74.5682C43.4622 74.5683 41.9898 74.5682 43.4489 74.5683C43.0522 74.5683 42.6627 74.5317 42.2828 74.4612C40.9723 74.2182 39.251 73.133 38.5514 72.4701C38.202 72.139 38.1455 72.0421 37.8517 71.6431C37.3133 70.912 36.8411 70.0751 36.5285 69.1622C36.4363 68.8929 36.355 68.617 36.2852 68.3352C36.0905 67.5483 35.986 66.7157 35.986 65.8543C35.986 65.289 36.031 64.7362 36.117 64.2004C36.162 63.9198 36.2183 63.644 36.2852 63.3735C37.192 59.7096 40.056 57.0334 43.4489 57.0334C47.5705 57.0334 50.9117 60.9827 50.9117 65.8543Z" fill="white"/>
<path d="M37.8517 71.6431L22.5529 85.7654L24.0454 88.7505L27.0306 90.9894L38.5514 72.4701C38.202 72.139 38.1455 72.0421 37.8517 71.6431Z" fill="white"/>
<path d="M36.2852 68.3352L22.1797 69.7202L21.4334 73.6744L21.0603 78.3025L36.5285 69.1622C36.4363 68.8929 36.355 68.617 36.2852 68.3352Z" fill="white"/>
<path d="M36.2852 63.3735L28.15 58.526L25.2582 63.0978L36.117 64.2004C36.162 63.9198 36.2183 63.644 36.2852 63.3735Z" fill="white"/>
<path d="M49.4191 30.9134L52.0311 26.8088L54.6431 43.2271L49.4191 30.9134Z" fill="white"/>
<mask id="path-12-inside-1_76_348" fill="white">
<path d="M50.9115 65.8544C50.9115 68.8863 49.6175 71.5608 47.6465 73.1486C47.4088 73.3401 47.1612 73.5158 46.9049 73.6744C45.8771 74.3103 44.7084 74.5644 43.4687 74.5683C43.462 74.5683 41.9896 74.5683 43.4487 74.5683C43.052 74.5683 42.6626 74.5317 42.2826 74.4613C40.9722 74.2182 39.2508 73.133 38.5512 72.4701C38.2018 72.139 38.1454 72.0421 37.8516 71.6432C37.3132 70.9121 36.8409 70.0751 36.5283 69.1623C36.4361 68.893 36.3548 68.6171 36.2851 68.3353C36.0903 67.5483 35.9858 66.7158 35.9858 65.8544C35.9858 65.2891 36.0308 64.7362 36.1168 64.2005C36.1618 63.9199 36.2181 63.644 36.2851 63.3735C37.1918 59.7096 40.0558 57.0334 43.4487 57.0334C47.5703 57.0334 50.9115 60.9827 50.9115 65.8544Z"/>
</mask>
<path d="M50.9115 65.8544C50.9115 68.8863 49.6175 71.5608 47.6465 73.1486C47.4088 73.3401 47.1612 73.5158 46.9049 73.6744C45.8771 74.3103 44.7084 74.5644 43.4687 74.5683C43.462 74.5683 41.9896 74.5683 43.4487 74.5683C43.052 74.5683 42.6626 74.5317 42.2826 74.4613C40.9722 74.2182 39.2508 73.133 38.5512 72.4701C38.2018 72.139 38.1454 72.0421 37.8516 71.6432C37.3132 70.9121 36.8409 70.0751 36.5283 69.1623C36.4361 68.893 36.3548 68.6171 36.2851 68.3353C36.0903 67.5483 35.9858 66.7158 35.9858 65.8544C35.9858 65.2891 36.0308 64.7362 36.1168 64.2005C36.1618 63.9199 36.2181 63.644 36.2851 63.3735C37.1918 59.7096 40.0558 57.0334 43.4487 57.0334C47.5703 57.0334 50.9115 60.9827 50.9115 65.8544Z" fill="#0A0A0A"/>
<path d="M43.4487 74.5683L43.3709 74.2675L43.4491 74.879L43.4487 74.5683ZM43.5265 74.8691L46.9827 73.9752L46.8271 73.3736L43.3709 74.2675L43.5265 74.8691ZM43.4682 74.2576L43.4483 74.2576L43.4491 74.879L43.4691 74.879L43.4682 74.2576ZM43.4487 74.5683V75.1897L43.4487 73.947L43.4487 74.5683ZM36.2851 63.3735L36.8882 63.5228L36.2851 63.3735ZM36.1168 64.2005L35.5033 64.102L36.1168 64.2005ZM36.2851 68.3353L35.6819 68.4846L36.2851 68.3353ZM36.5283 69.1623L37.1162 68.9609L36.5283 69.1623ZM37.8516 71.6432L38.3519 71.2747L37.8516 71.6432ZM38.5512 72.4701L38.1238 72.9212L38.5512 72.4701ZM42.2826 74.4613L42.1693 75.0722L42.2826 74.4613ZM46.9049 73.6744L47.2318 74.2028L46.9049 73.6744ZM47.6465 73.1486L48.0364 73.6325L47.6465 73.1486ZM43.4687 74.5683L43.4667 73.9469H43.4667L43.4687 74.5683ZM43.4487 57.6548C47.1338 57.6548 50.2902 61.2245 50.2902 65.8544H51.5329C51.5329 60.741 48.0068 56.4121 43.4487 56.4121V57.6548ZM36.8882 63.5228C37.7443 60.0635 40.4101 57.6548 43.4487 57.6548V56.4121C39.7016 56.4121 36.6393 59.3557 35.6819 63.2242L36.8882 63.5228ZM36.6072 65.8544C36.6072 65.3221 36.6496 64.8021 36.7303 64.2989L35.5033 64.102C35.4121 64.6703 35.3645 65.2561 35.3645 65.8544H36.6072ZM36.7303 64.2989C36.7726 64.0354 36.8254 63.7765 36.8882 63.5228L35.6819 63.2242C35.6108 63.5115 35.5511 63.8044 35.5033 64.102L36.7303 64.2989ZM36.8882 68.186C36.7056 67.448 36.6072 66.6655 36.6072 65.8544H35.3645C35.3645 66.766 35.475 67.6487 35.6819 68.4846L36.8882 68.186ZM37.1162 68.9609C37.0298 68.7088 36.9536 68.4503 36.8882 68.186L35.6819 68.4846C35.756 68.7838 35.8424 69.0771 35.9405 69.3636L37.1162 68.9609ZM38.3519 71.2747C37.8439 70.5849 37.4047 69.8036 37.1162 68.9609L35.9405 69.3636C36.2771 70.3467 36.7824 71.2392 37.3512 72.0116L38.3519 71.2747ZM38.9786 72.0191C38.6738 71.7303 38.6464 71.6747 38.3519 71.2747L37.3512 72.0116C37.6443 72.4096 37.7297 72.5478 38.1238 72.9212L38.9786 72.0191ZM43.4487 73.947C43.0903 73.947 42.7388 73.9139 42.3959 73.8503L42.1693 75.0722C42.5863 75.1495 43.0137 75.1897 43.4487 75.1897V73.947ZM42.3959 73.8503C41.8376 73.7468 41.1485 73.4517 40.4932 73.082C39.8408 72.7139 39.2808 72.3055 38.9786 72.0191L38.1238 72.9212C38.5212 73.2977 39.1717 73.7633 39.8825 74.1643C40.5904 74.5637 41.4172 74.9327 42.1693 75.0722L42.3959 73.8503ZM50.2902 65.8544C50.2902 68.7145 49.069 71.2048 47.2567 72.6647L48.0364 73.6325C50.1659 71.9169 51.5329 69.058 51.5329 65.8544H50.2902ZM47.2567 72.6647C47.0385 72.8405 46.8119 73.0013 46.578 73.146L47.2318 74.2028C47.5106 74.0303 47.7791 73.8397 48.0364 73.6325L47.2567 72.6647ZM43.4667 73.9469C43.4672 73.9469 43.4453 73.9469 43.406 73.9469C43.368 73.9469 43.3156 73.9469 43.2575 73.9469C43.1414 73.9469 43.0023 73.9469 42.909 73.9469C42.8624 73.9469 42.8272 73.9469 42.812 73.9469C42.8083 73.9469 42.8057 73.9469 42.8045 73.9469C42.8042 73.9469 42.8039 73.9469 42.8037 73.9469C42.8037 73.9469 42.8036 73.9469 42.8035 73.9469C42.8034 73.9469 42.803 73.9469 42.8026 73.9469C42.1841 74.5245 42.7589 75.188 42.8027 75.1897C42.803 75.1897 42.8034 75.1897 42.8035 75.1897C42.8039 75.1897 42.8046 75.1897 42.8054 75.1897C42.8089 75.1897 42.8185 75.1897 42.8353 75.1897C42.9023 75.1897 43.0839 75.1897 43.4487 75.1897L43.4487 73.947C43.0839 73.947 42.9024 73.9469 42.8353 73.9469C42.8186 73.9469 42.809 73.9469 42.8055 73.9469C42.8045 73.9469 42.8043 73.9469 42.8043 73.9469C42.8044 73.9469 42.8048 73.9469 42.8051 73.9469C42.8489 73.9486 43.4237 74.6121 42.8051 75.1897C42.8048 75.1897 42.8044 75.1897 42.8043 75.1897C42.8043 75.1897 42.8042 75.1897 42.8042 75.1897C42.8042 75.1897 42.8042 75.1897 42.8043 75.1897C42.8043 75.1897 42.8043 75.1897 42.8043 75.1897C42.8044 75.1897 42.8045 75.1897 42.8047 75.1897C42.8058 75.1897 42.8083 75.1897 42.8121 75.1897C42.8272 75.1897 42.8624 75.1897 42.909 75.1897C43.0943 75.1897 43.466 75.1897 43.4706 75.1896L43.4667 73.9469ZM46.578 73.146C45.6714 73.7069 44.6229 73.9434 43.4667 73.9469L43.4706 75.1896C44.7939 75.1855 46.0828 74.9137 47.2318 74.2028L46.578 73.146Z" fill="white" mask="url(#path-12-inside-1_76_348)"/>
<path d="M60.6133 65.108C60.6133 68.1398 61.9074 70.8144 63.8783 72.4021C64.1161 72.5937 64.3636 72.7694 64.62 72.928C65.6478 73.5639 66.8165 73.818 68.0562 73.8219C68.0629 73.8219 69.5353 73.8218 68.0762 73.8219C68.4729 73.8219 68.8623 73.7853 69.2423 73.7148C70.5527 73.4718 72.274 72.3866 72.9737 71.7237C73.3231 71.3926 73.3795 71.2957 73.6733 70.8967C74.2117 70.1656 74.6839 69.3287 74.9966 68.4158C75.0888 68.1465 75.1701 67.8706 75.2398 67.5889C75.4346 66.8019 75.539 65.9693 75.539 65.108C75.539 64.5427 75.4941 63.9898 75.4081 63.454C75.363 63.1735 75.3068 62.8976 75.2398 62.6271C74.3331 58.9632 71.4691 56.287 68.0762 56.287C63.9546 56.287 60.6133 60.2363 60.6133 65.108Z" fill="white"/>
<path d="M73.6733 70.8967L88.599 86.1384L86.5001 89.4967L83.7482 91.3624L72.9737 71.7237C73.3231 71.3926 73.3795 71.2957 73.6733 70.8967Z" fill="white"/>
<path d="M75.2398 67.5889L89.3453 69.347L90.0916 72.928L90.8379 79.4219L74.9966 68.4158C75.0888 68.1465 75.1701 67.8706 75.2398 67.5889Z" fill="white"/>
<path d="M75.2398 62.6271L83.0019 57.4064L86.2669 62.3514L75.4081 63.454C75.363 63.1735 75.3068 62.8976 75.2398 62.6271Z" fill="white"/>
<path d="M59.1208 27.1819L61.7328 31.2865L55.7625 42.1076L59.1208 27.1819Z" fill="white"/>
<mask id="path-15-inside-2_76_348" fill="white">
<path d="M75.8188 65.986C75.8188 69.0178 74.5247 71.6924 72.5538 73.2802C72.316 73.4717 72.0685 73.6474 71.8121 73.806C70.7843 74.4419 69.6156 74.696 68.3759 74.6999C68.3692 74.6999 66.8968 74.6999 68.3559 74.6999C67.9592 74.6999 67.5698 74.6633 67.1898 74.5929C65.8794 74.3498 64.1581 73.2646 63.4584 72.6017C63.109 72.2706 63.0526 72.1737 62.7588 71.7748C62.2204 71.0437 61.7482 70.2067 61.4355 69.2939C61.3433 69.0246 61.262 68.7486 61.1923 68.4669C60.9975 67.6799 60.8931 66.8474 60.8931 65.986C60.8931 65.4207 60.9381 64.8678 61.024 64.3321C61.0691 64.0515 61.1253 63.7756 61.1923 63.5051C62.099 59.8412 64.9631 57.165 68.3559 57.165C72.4775 57.165 75.8188 61.1143 75.8188 65.986Z"/>
</mask>
<path d="M75.8188 65.986C75.8188 69.0178 74.5247 71.6924 72.5538 73.2802C72.316 73.4717 72.0685 73.6474 71.8121 73.806C70.7843 74.4419 69.6156 74.696 68.3759 74.6999C68.3692 74.6999 66.8968 74.6999 68.3559 74.6999C67.9592 74.6999 67.5698 74.6633 67.1898 74.5929C65.8794 74.3498 64.1581 73.2646 63.4584 72.6017C63.109 72.2706 63.0526 72.1737 62.7588 71.7748C62.2204 71.0437 61.7482 70.2067 61.4355 69.2939C61.3433 69.0246 61.262 68.7486 61.1923 68.4669C60.9975 67.6799 60.8931 66.8474 60.8931 65.986C60.8931 65.4207 60.9381 64.8678 61.024 64.3321C61.0691 64.0515 61.1253 63.7756 61.1923 63.5051C62.099 59.8412 64.9631 57.165 68.3559 57.165C72.4775 57.165 75.8188 61.1143 75.8188 65.986Z" fill="#0A0A0A"/>
<path d="M68.3559 74.6999L68.2781 74.3991L68.3564 75.0106L68.3559 74.6999ZM68.4337 75.0007L71.8899 74.1068L71.7343 73.5052L68.2781 74.3991L68.4337 75.0007ZM68.3755 74.3892L68.3555 74.3892L68.3564 75.0106L68.3763 75.0106L68.3755 74.3892ZM68.3559 74.6999V75.3213L68.3559 74.0786L68.3559 74.6999ZM61.1923 63.5051L61.7954 63.6544L61.1923 63.5051ZM61.024 64.3321L60.4105 64.2336L61.024 64.3321ZM61.1923 68.4669L60.5891 68.6162L61.1923 68.4669ZM61.4355 69.2939L62.0234 69.0925L61.4355 69.2939ZM62.7588 71.7748L63.2591 71.4063L62.7588 71.7748ZM63.4584 72.6017L63.0311 73.0528L63.4584 72.6017ZM67.1898 74.5929L67.0765 75.2038L67.1898 74.5929ZM71.8121 73.806L72.1391 74.3344L71.8121 73.806ZM72.5538 73.2802L72.9436 73.7641L72.5538 73.2802ZM68.3759 74.6999L68.374 74.0785H68.3739L68.3759 74.6999ZM68.3559 57.7864C72.041 57.7864 75.1974 61.356 75.1974 65.986H76.4401C76.4401 60.8726 72.914 56.5437 68.3559 56.5437V57.7864ZM61.7954 63.6544C62.6515 60.1951 65.3173 57.7864 68.3559 57.7864V56.5437C64.6088 56.5437 61.5465 59.4873 60.5891 63.3558L61.7954 63.6544ZM61.5144 65.986C61.5144 65.4537 61.5568 64.9337 61.6375 64.4305L60.4105 64.2336C60.3193 64.8019 60.2717 65.3877 60.2717 65.986H61.5144ZM61.6375 64.4305C61.6798 64.167 61.7327 63.9081 61.7954 63.6544L60.5891 63.3558C60.518 63.6431 60.4583 63.936 60.4105 64.2336L61.6375 64.4305ZM61.7954 68.3176C61.6128 67.5795 61.5144 66.7971 61.5144 65.986H60.2717C60.2717 66.8976 60.3823 67.7803 60.5891 68.6162L61.7954 68.3176ZM62.0234 69.0925C61.937 68.8404 61.8608 68.5819 61.7954 68.3176L60.5891 68.6162C60.6632 68.9154 60.7496 69.2087 60.8477 69.4952L62.0234 69.0925ZM63.2591 71.4063C62.7511 70.7165 62.312 69.9352 62.0234 69.0925L60.8477 69.4952C61.1844 70.4782 61.6896 71.3708 62.2585 72.1432L63.2591 71.4063ZM63.8858 72.1507C63.581 71.8619 63.5536 71.8063 63.2591 71.4063L62.2585 72.1432C62.5516 72.5412 62.637 72.6794 63.0311 73.0528L63.8858 72.1507ZM68.3559 74.0786C67.9976 74.0786 67.646 74.0455 67.3032 73.9819L67.0765 75.2038C67.4935 75.2811 67.9209 75.3213 68.3559 75.3213V74.0786ZM67.3032 73.9819C66.7449 73.8784 66.0557 73.5833 65.4004 73.2136C64.748 72.8455 64.1881 72.4371 63.8858 72.1507L63.0311 73.0528C63.4284 73.4293 64.079 73.8949 64.7898 74.2959C65.4976 74.6953 66.3244 75.0643 67.0765 75.2038L67.3032 73.9819ZM75.1974 65.986C75.1974 68.8461 73.9763 71.3363 72.164 72.7963L72.9436 73.7641C75.0731 72.0485 76.4401 69.1896 76.4401 65.986H75.1974ZM72.164 72.7963C71.9458 72.9721 71.7192 73.1328 71.4852 73.2776L72.1391 74.3344C72.4178 74.1619 72.6863 73.9713 72.9436 73.7641L72.164 72.7963ZM68.3739 74.0785C68.3744 74.0785 68.3525 74.0785 68.3133 74.0785C68.2752 74.0785 68.2229 74.0785 68.1648 74.0785C68.0486 74.0785 67.9095 74.0785 67.8162 74.0785C67.7696 74.0785 67.7344 74.0785 67.7193 74.0785C67.7155 74.0785 67.7129 74.0785 67.7117 74.0785C67.7114 74.0785 67.7112 74.0785 67.711 74.0785C67.7109 74.0785 67.7108 74.0785 67.7107 74.0785C67.7106 74.0785 67.7102 74.0785 67.7099 74.0785C67.0913 74.6561 67.6661 75.3196 67.7099 75.3213C67.7102 75.3213 67.7106 75.3213 67.7107 75.3213C67.7111 75.3213 67.7118 75.3213 67.7126 75.3213C67.7161 75.3213 67.7258 75.3213 67.7425 75.3213C67.8096 75.3213 67.9911 75.3213 68.3559 75.3213L68.3559 74.0786C67.9912 74.0785 67.8096 74.0785 67.7426 74.0785C67.7258 74.0785 67.7162 74.0785 67.7127 74.0785C67.7117 74.0785 67.7115 74.0785 67.7116 74.0785C67.7116 74.0785 67.712 74.0785 67.7123 74.0785C67.7561 74.0802 68.3309 74.7437 67.7124 75.3213C67.712 75.3213 67.7116 75.3213 67.7116 75.3213C67.7115 75.3213 67.7115 75.3213 67.7115 75.3213C67.7115 75.3213 67.7115 75.3213 67.7115 75.3213C67.7115 75.3213 67.7115 75.3213 67.7116 75.3213C67.7117 75.3213 67.7118 75.3213 67.7119 75.3213C67.713 75.3213 67.7155 75.3213 67.7193 75.3213C67.7344 75.3213 67.7696 75.3213 67.8162 75.3213C68.0015 75.3212 68.3732 75.3213 68.3779 75.3212L68.3739 74.0785ZM71.4852 73.2776C70.5786 73.8385 69.5302 74.0749 68.374 74.0785L68.3778 75.3212C69.7011 75.3171 70.99 75.0453 72.1391 74.3344L71.4852 73.2776Z" fill="white" mask="url(#path-15-inside-2_76_348)"/>
<path d="M76.4266 59.723C76.4524 62.7244 75.1651 65.3218 72.8479 66.8225C72.23 67.2265 71.3289 68.1789 70.8397 68.9581C68.883 72.0172 66.2827 74.0238 62.5753 74.0527L76.4266 59.723ZM76.4266 59.723C76.4266 57.5586 75.9374 56.0867 74.7016 54.384L76.4266 59.723ZM62.5741 73.742C66.1427 73.7138 68.6573 71.7929 70.5772 68.792C71.0855 67.9827 72.0158 66.9954 72.6779 66.5625L72.679 66.5617C74.8959 65.126 76.1409 62.6347 76.1159 59.7257V59.723C76.1159 57.6253 75.648 56.2176 74.4519 54.5689C74.0388 54.0216 73.7742 53.6587 73.6725 53.242C73.5707 52.8249 73.6387 52.3811 73.7516 51.7065L73.7518 51.7048C74.2226 48.9834 73.4119 46.513 71.3122 44.3555C69.8671 42.8754 68.2447 42.1408 66.5144 42.1408C66.0846 42.1408 65.718 42.0665 65.3134 41.8521C64.9229 41.6452 64.5063 41.3124 63.9639 40.8203C63.2293 40.1674 62.0458 39.3236 61.3375 38.9951L61.3375 38.9951L61.3337 38.9933C59.5944 38.1577 57.3135 37.9706 55.731 38.5431C54.9051 38.8512 53.239 39.0526 51.5111 39.0816C49.2648 39.1389 47.6385 39.4105 46.2443 40.0357C44.8527 40.6596 43.6648 41.6481 42.317 43.1872C41.3781 44.2975 39.9874 45.5385 39.1703 45.9968C35.0925 48.2963 32.6241 53.5624 33.3773 58.3759C33.6813 60.2784 34.2106 61.832 35.0601 63.2148C35.9099 64.5982 37.0898 65.8262 38.7157 67.0651C39.362 67.5481 39.9111 68.0182 40.3969 68.4396C40.4459 68.4822 40.4943 68.5242 40.5419 68.5656C40.9698 68.9373 41.3427 69.2613 41.6986 69.5255C42.4782 70.1042 43.1155 70.3513 43.9382 70.1395L43.9405 70.1389C44.2799 70.0544 44.6378 69.9487 44.9405 69.8438C45.2545 69.7349 45.4761 69.6378 45.5672 69.5765L45.5741 69.5719L45.5812 69.5676C46.1381 69.2347 46.983 69.3563 47.7656 70.2335C48.3423 70.88 48.7077 71.2292 49.1054 71.4744C49.5028 71.7193 49.951 71.872 50.7215 72.088C51.0912 72.184 51.3642 72.3279 51.5515 72.4775C51.6449 72.5521 51.7206 72.631 51.7757 72.7098C51.8225 72.7767 51.8833 72.884 51.8833 73.0093C51.8833 73.0476 51.8745 73.1101 51.8681 73.1555L51.8681 73.1559C51.8596 73.2156 51.8473 73.2972 51.8314 73.3983C51.7994 73.6007 51.7524 73.885 51.6919 74.2363C51.5707 74.9392 51.3947 75.9126 51.1755 77.0404C50.8683 78.6203 50.6564 80.0075 50.5213 81.01C50.4538 81.5111 50.4056 81.9158 50.3743 82.2C50.3694 82.2447 50.3649 82.2864 50.3608 82.3249C50.3637 82.3236 50.3666 82.3222 50.3696 82.3208C50.6554 82.187 51.0884 81.9238 51.6424 81.5291C52.7454 80.7433 54.2862 79.4669 56.0145 77.7592L56.0159 77.7578L60.0412 73.8303L60.1317 73.742H60.2581H62.5741ZM50.1183 82.4123C50.1186 82.4122 50.1189 82.4122 50.1192 82.4122L50.1183 82.4123Z" fill="#0A0A0A" stroke="white" stroke-width="0.621358"/>
<mask id="path-18-inside-3_76_348" fill="white">
<path fill-rule="evenodd" clip-rule="evenodd" d="M60.6829 40.0041C61.3449 40.3287 62.4178 41.1404 63.0798 41.7626C64.0386 42.6824 64.4723 42.9259 65.1571 42.9259C66.7779 42.9259 68.2846 43.6563 69.6086 45.0902C71.5261 47.1733 72.2795 49.5811 71.8457 52.2324C71.6403 53.531 71.6631 53.6392 72.4164 54.6943C73.5122 56.2904 73.9459 57.6702 73.9459 59.6992C73.9687 62.5128 72.8273 64.9476 70.7728 66.3544C70.2249 66.7332 69.426 67.6259 68.9922 68.3564C67.2573 71.2241 64.9517 72.5227 61.6645 72.5497H59.61L56.1173 76.202C53.0355 79.4214 51.9626 80.3682 51.9626 79.9083C51.9626 79.854 52.1056 79.0248 52.3097 77.8419L52.3098 77.8413L52.3098 77.8411C52.4107 77.256 52.5266 76.5844 52.6474 75.8773C53.0355 73.7671 53.3323 71.9275 53.3323 71.8463C53.3323 71.7381 52.8529 71.5217 52.2594 71.3594C50.8897 70.9535 49.4515 69.9526 48.4243 68.7351C47.7851 67.9776 47.534 67.8424 47.1916 68.0588C46.9633 68.2211 46.2784 68.4646 45.6621 68.6269C43.9728 69.0868 42.6031 68.5999 40.3432 66.8143C37.4212 64.4607 36.0515 62.107 35.5037 58.4818C34.8188 53.8556 37.056 48.7966 40.7769 46.5781C41.4617 46.1723 42.6716 45.0361 43.4934 44.008C45.9132 41.0862 47.8307 40.1664 51.8485 40.0582C53.3779 40.0311 54.8161 39.8418 55.5009 39.5712C56.9847 39.0031 59.0849 39.1925 60.6829 40.0041ZM56.4825 41.8437C56.3912 41.8437 56.2999 41.7084 56.2999 41.5732C56.2999 41.1674 58.6055 41.2485 59.7469 41.7084C61.0709 42.2495 62.3036 43.4669 63.057 44.9819L63.6505 46.1723L62.8287 47.2545C62.2351 48.039 62.0069 48.5801 62.0069 49.2564C62.0069 51.3396 63.9244 53.0169 65.568 52.3947C67.9421 51.4478 68.1704 47.6603 65.9333 46.3887C65.5909 46.1994 65.2941 45.8206 65.2484 45.5501C65.1343 44.8196 66.2757 44.9819 67.6454 45.9018C70.1793 47.6332 71.0011 51.7995 69.3118 54.3696C68.8781 55.0189 68.8324 55.0189 67.9193 54.6672C66.7323 54.1802 65.705 54.5049 64.8604 55.6682C63.445 57.6701 64.769 60.7813 67.029 60.7813C68.5357 60.7813 69.7684 59.3475 69.7684 57.589C69.7684 57.1291 69.9738 56.588 70.3162 56.2092L70.8641 55.6141L71.2978 56.3716C71.8685 57.3184 72.2794 58.7523 72.2794 59.6721C72.2794 62.7833 69.9966 65.4616 67.3486 65.4616C65.8648 65.4616 65.6593 65.2993 65.6593 64.163C65.6593 62.9727 64.7462 61.7012 63.6048 61.2953C62.8743 61.0248 62.6004 61.0519 61.8471 61.4847C60.7057 62.1611 60.0665 63.5679 60.2719 64.8935C60.5687 66.8143 62.3721 67.9776 63.9472 67.3013C64.4951 67.0848 64.9973 67.0848 66.0018 67.3283L67.3486 67.6259L66.367 68.654C63.057 72.1439 57.3271 70.5207 55.752 65.6239L55.3639 64.4065L56.2771 63.2973C57.0304 62.4045 57.213 61.9987 57.213 61.2142C57.213 58.076 54.2682 56.7233 52.4876 59.0228C51.3919 60.4026 51.4375 61.7553 52.6246 63.2973C53.104 63.9466 53.6747 65.0558 53.903 65.8674C54.3823 67.653 55.4096 69.2762 56.8249 70.5207L57.8978 71.4675L56.3684 73.1178C55.5009 74.0376 54.7704 74.741 54.7476 74.714C54.7019 74.6599 54.8161 73.6859 55.0215 72.5497C55.227 71.3864 55.3868 70.3042 55.3868 70.1149C55.3868 69.8984 54.8617 69.7361 53.903 69.6279C51.3919 69.3574 49.657 67.9506 48.5612 65.3263C48.0362 64.136 47.8536 63.2973 47.8536 62.2963C47.8536 60.105 47.9905 59.7803 49.0406 59.591C50.3418 59.3475 51.506 57.9407 51.506 56.6151C51.506 53.9367 49.5428 52.5029 47.4883 53.6391C46.2099 54.3696 45.6392 56.4257 46.2784 57.8595C46.4611 58.2924 46.4611 58.9417 46.2556 60.3755C45.9817 62.2422 46.0501 63.1891 46.6208 65.5428C46.735 66.0297 46.6208 66.1921 46.0045 66.4356C43.3793 67.5177 40.5486 65.2993 40.5486 62.107C40.5486 61.4847 40.6399 61.3224 41.0737 61.3224C41.3476 61.3224 41.9868 61.0789 42.5118 60.8084C44.3152 59.8344 44.6348 57.2643 43.151 55.6141C42.3064 54.6942 40.3888 54.6672 39.5442 55.6141C38.7452 56.5068 38.4484 57.7243 38.7224 58.8876C38.9963 60.0509 39.0191 61.7823 38.7452 61.9717C38.4484 62.2152 37.8777 61.0519 37.444 59.2934C36.6679 56.074 37.3527 52.9628 39.43 50.3656C41.165 48.2013 42.6716 47.4168 45.1142 47.3897C47.7166 47.3897 48.3101 47.6062 48.3101 48.553C48.3101 49.6893 49.0863 50.9338 50.0222 51.3125C51.2321 51.7724 52.2593 51.4478 53.0812 50.3386C54.2225 48.7965 53.9714 46.9298 52.442 45.7124C51.5289 44.9819 50.8212 44.9278 49.8852 45.523C49.3145 45.8477 48.9721 45.8747 48.0133 45.6583C47.3513 45.496 46.4382 45.3066 45.9588 45.2254C45.0914 45.0631 45.0914 45.0361 45.4794 44.522C45.7077 44.2244 46.5524 43.6022 47.3742 43.1152C48.7438 42.3307 49.0634 42.2495 51.0495 42.2495C52.967 42.2495 53.3779 42.3307 54.6563 43.0341C57.1902 44.4138 59.4958 48.1202 59.4958 50.7714C59.4958 51.4207 59.3588 51.6372 58.7196 51.9618C58.2631 52.1782 57.7609 52.7193 57.5783 53.1792C56.026 56.6962 59.9524 59.7262 62.121 56.6962C63.0113 55.4247 62.8743 53.7474 61.7786 52.2594C61.5503 51.9618 61.2992 51.0149 61.2079 50.1492C60.9796 47.7955 59.7469 45.1443 58.0805 43.3317C57.3043 42.5201 56.5966 41.8437 56.4825 41.8437ZM50.1363 47.7957C49.7482 48.6884 50.2276 49.473 51.1179 49.3648C51.6886 49.3107 51.8712 49.1483 51.9168 48.6614C52.0766 47.3628 50.6385 46.6865 50.1363 47.7957ZM64.1753 50.2304C63.7187 49.7705 63.7416 48.6884 64.2438 48.3637C64.8145 47.9579 65.0884 48.012 65.5221 48.5802C66.0472 49.2565 65.8189 50.1763 65.0656 50.3928C64.746 50.501 64.3579 50.4198 64.1753 50.2304ZM59.4044 53.8287C58.5369 54.5591 59.4501 56.3988 60.3632 55.7495C60.9111 55.3166 61.0024 54.2615 60.5001 53.8287C60.2719 53.6393 60.0208 53.477 59.9523 53.477C59.8838 53.477 59.6327 53.6393 59.4044 53.8287ZM48.1957 57.2645C47.8305 56.9128 47.7392 55.8847 48.0131 55.533C48.1044 55.4248 48.4925 55.3707 48.8806 55.4248C49.4741 55.506 49.5654 55.6142 49.6339 56.3717C49.7024 57.1292 49.6111 57.2645 49.1088 57.4268C48.7664 57.535 48.4012 57.4539 48.1957 57.2645ZM66.3897 56.7776C65.6136 57.6974 66.5267 59.2124 67.4855 58.6173C68.2845 58.1032 67.942 56.453 67.0289 56.453C66.8235 56.453 66.5495 56.5882 66.3897 56.7776ZM41.3475 59.1583C40.3659 59.1583 40.0235 58.1032 40.7083 57.2104C41.1649 56.6152 41.416 56.5882 41.9639 57.1834C42.6944 57.9679 42.3291 59.1583 41.3475 59.1583ZM53.8344 60.1863C53.6518 60.3216 53.5604 60.7815 53.6061 61.2143C53.6746 61.9177 53.7659 61.9989 54.4736 61.9989C55.2269 61.9989 55.2725 61.9448 55.2725 61.052C55.2725 60.2404 55.1812 60.1051 54.7018 60.024C54.3823 59.9969 53.9942 60.0781 53.8344 60.1863ZM62.4634 65.3806C61.9612 65.056 61.8471 64.055 62.2808 63.5409C62.6689 63.081 63.2852 63.1351 63.6961 63.6492C63.9075 63.8997 64.0102 64.0142 64.0351 64.1436C64.0587 64.2658 64.0131 64.4013 63.9244 64.6772C63.6961 65.3806 62.9885 65.7052 62.4634 65.3806Z"/>
</mask>
<path fill-rule="evenodd" clip-rule="evenodd" d="M60.6829 40.0041C61.3449 40.3287 62.4178 41.1404 63.0798 41.7626C64.0386 42.6824 64.4723 42.9259 65.1571 42.9259C66.7779 42.9259 68.2846 43.6563 69.6086 45.0902C71.5261 47.1733 72.2795 49.5811 71.8457 52.2324C71.6403 53.531 71.6631 53.6392 72.4164 54.6943C73.5122 56.2904 73.9459 57.6702 73.9459 59.6992C73.9687 62.5128 72.8273 64.9476 70.7728 66.3544C70.2249 66.7332 69.426 67.6259 68.9922 68.3564C67.2573 71.2241 64.9517 72.5227 61.6645 72.5497H59.61L56.1173 76.202C53.0355 79.4214 51.9626 80.3682 51.9626 79.9083C51.9626 79.854 52.1056 79.0248 52.3097 77.8419L52.3098 77.8413L52.3098 77.8411C52.4107 77.256 52.5266 76.5844 52.6474 75.8773C53.0355 73.7671 53.3323 71.9275 53.3323 71.8463C53.3323 71.7381 52.8529 71.5217 52.2594 71.3594C50.8897 70.9535 49.4515 69.9526 48.4243 68.7351C47.7851 67.9776 47.534 67.8424 47.1916 68.0588C46.9633 68.2211 46.2784 68.4646 45.6621 68.6269C43.9728 69.0868 42.6031 68.5999 40.3432 66.8143C37.4212 64.4607 36.0515 62.107 35.5037 58.4818C34.8188 53.8556 37.056 48.7966 40.7769 46.5781C41.4617 46.1723 42.6716 45.0361 43.4934 44.008C45.9132 41.0862 47.8307 40.1664 51.8485 40.0582C53.3779 40.0311 54.8161 39.8418 55.5009 39.5712C56.9847 39.0031 59.0849 39.1925 60.6829 40.0041ZM56.4825 41.8437C56.3912 41.8437 56.2999 41.7084 56.2999 41.5732C56.2999 41.1674 58.6055 41.2485 59.7469 41.7084C61.0709 42.2495 62.3036 43.4669 63.057 44.9819L63.6505 46.1723L62.8287 47.2545C62.2351 48.039 62.0069 48.5801 62.0069 49.2564C62.0069 51.3396 63.9244 53.0169 65.568 52.3947C67.9421 51.4478 68.1704 47.6603 65.9333 46.3887C65.5909 46.1994 65.2941 45.8206 65.2484 45.5501C65.1343 44.8196 66.2757 44.9819 67.6454 45.9018C70.1793 47.6332 71.0011 51.7995 69.3118 54.3696C68.8781 55.0189 68.8324 55.0189 67.9193 54.6672C66.7323 54.1802 65.705 54.5049 64.8604 55.6682C63.445 57.6701 64.769 60.7813 67.029 60.7813C68.5357 60.7813 69.7684 59.3475 69.7684 57.589C69.7684 57.1291 69.9738 56.588 70.3162 56.2092L70.8641 55.6141L71.2978 56.3716C71.8685 57.3184 72.2794 58.7523 72.2794 59.6721C72.2794 62.7833 69.9966 65.4616 67.3486 65.4616C65.8648 65.4616 65.6593 65.2993 65.6593 64.163C65.6593 62.9727 64.7462 61.7012 63.6048 61.2953C62.8743 61.0248 62.6004 61.0519 61.8471 61.4847C60.7057 62.1611 60.0665 63.5679 60.2719 64.8935C60.5687 66.8143 62.3721 67.9776 63.9472 67.3013C64.4951 67.0848 64.9973 67.0848 66.0018 67.3283L67.3486 67.6259L66.367 68.654C63.057 72.1439 57.3271 70.5207 55.752 65.6239L55.3639 64.4065L56.2771 63.2973C57.0304 62.4045 57.213 61.9987 57.213 61.2142C57.213 58.076 54.2682 56.7233 52.4876 59.0228C51.3919 60.4026 51.4375 61.7553 52.6246 63.2973C53.104 63.9466 53.6747 65.0558 53.903 65.8674C54.3823 67.653 55.4096 69.2762 56.8249 70.5207L57.8978 71.4675L56.3684 73.1178C55.5009 74.0376 54.7704 74.741 54.7476 74.714C54.7019 74.6599 54.8161 73.6859 55.0215 72.5497C55.227 71.3864 55.3868 70.3042 55.3868 70.1149C55.3868 69.8984 54.8617 69.7361 53.903 69.6279C51.3919 69.3574 49.657 67.9506 48.5612 65.3263C48.0362 64.136 47.8536 63.2973 47.8536 62.2963C47.8536 60.105 47.9905 59.7803 49.0406 59.591C50.3418 59.3475 51.506 57.9407 51.506 56.6151C51.506 53.9367 49.5428 52.5029 47.4883 53.6391C46.2099 54.3696 45.6392 56.4257 46.2784 57.8595C46.4611 58.2924 46.4611 58.9417 46.2556 60.3755C45.9817 62.2422 46.0501 63.1891 46.6208 65.5428C46.735 66.0297 46.6208 66.1921 46.0045 66.4356C43.3793 67.5177 40.5486 65.2993 40.5486 62.107C40.5486 61.4847 40.6399 61.3224 41.0737 61.3224C41.3476 61.3224 41.9868 61.0789 42.5118 60.8084C44.3152 59.8344 44.6348 57.2643 43.151 55.6141C42.3064 54.6942 40.3888 54.6672 39.5442 55.6141C38.7452 56.5068 38.4484 57.7243 38.7224 58.8876C38.9963 60.0509 39.0191 61.7823 38.7452 61.9717C38.4484 62.2152 37.8777 61.0519 37.444 59.2934C36.6679 56.074 37.3527 52.9628 39.43 50.3656C41.165 48.2013 42.6716 47.4168 45.1142 47.3897C47.7166 47.3897 48.3101 47.6062 48.3101 48.553C48.3101 49.6893 49.0863 50.9338 50.0222 51.3125C51.2321 51.7724 52.2593 51.4478 53.0812 50.3386C54.2225 48.7965 53.9714 46.9298 52.442 45.7124C51.5289 44.9819 50.8212 44.9278 49.8852 45.523C49.3145 45.8477 48.9721 45.8747 48.0133 45.6583C47.3513 45.496 46.4382 45.3066 45.9588 45.2254C45.0914 45.0631 45.0914 45.0361 45.4794 44.522C45.7077 44.2244 46.5524 43.6022 47.3742 43.1152C48.7438 42.3307 49.0634 42.2495 51.0495 42.2495C52.967 42.2495 53.3779 42.3307 54.6563 43.0341C57.1902 44.4138 59.4958 48.1202 59.4958 50.7714C59.4958 51.4207 59.3588 51.6372 58.7196 51.9618C58.2631 52.1782 57.7609 52.7193 57.5783 53.1792C56.026 56.6962 59.9524 59.7262 62.121 56.6962C63.0113 55.4247 62.8743 53.7474 61.7786 52.2594C61.5503 51.9618 61.2992 51.0149 61.2079 50.1492C60.9796 47.7955 59.7469 45.1443 58.0805 43.3317C57.3043 42.5201 56.5966 41.8437 56.4825 41.8437ZM50.1363 47.7957C49.7482 48.6884 50.2276 49.473 51.1179 49.3648C51.6886 49.3107 51.8712 49.1483 51.9168 48.6614C52.0766 47.3628 50.6385 46.6865 50.1363 47.7957ZM64.1753 50.2304C63.7187 49.7705 63.7416 48.6884 64.2438 48.3637C64.8145 47.9579 65.0884 48.012 65.5221 48.5802C66.0472 49.2565 65.8189 50.1763 65.0656 50.3928C64.746 50.501 64.3579 50.4198 64.1753 50.2304ZM59.4044 53.8287C58.5369 54.5591 59.4501 56.3988 60.3632 55.7495C60.9111 55.3166 61.0024 54.2615 60.5001 53.8287C60.2719 53.6393 60.0208 53.477 59.9523 53.477C59.8838 53.477 59.6327 53.6393 59.4044 53.8287ZM48.1957 57.2645C47.8305 56.9128 47.7392 55.8847 48.0131 55.533C48.1044 55.4248 48.4925 55.3707 48.8806 55.4248C49.4741 55.506 49.5654 55.6142 49.6339 56.3717C49.7024 57.1292 49.6111 57.2645 49.1088 57.4268C48.7664 57.535 48.4012 57.4539 48.1957 57.2645ZM66.3897 56.7776C65.6136 57.6974 66.5267 59.2124 67.4855 58.6173C68.2845 58.1032 67.942 56.453 67.0289 56.453C66.8235 56.453 66.5495 56.5882 66.3897 56.7776ZM41.3475 59.1583C40.3659 59.1583 40.0235 58.1032 40.7083 57.2104C41.1649 56.6152 41.416 56.5882 41.9639 57.1834C42.6944 57.9679 42.3291 59.1583 41.3475 59.1583ZM53.8344 60.1863C53.6518 60.3216 53.5604 60.7815 53.6061 61.2143C53.6746 61.9177 53.7659 61.9989 54.4736 61.9989C55.2269 61.9989 55.2725 61.9448 55.2725 61.052C55.2725 60.2404 55.1812 60.1051 54.7018 60.024C54.3823 59.9969 53.9942 60.0781 53.8344 60.1863ZM62.4634 65.3806C61.9612 65.056 61.8471 64.055 62.2808 63.5409C62.6689 63.081 63.2852 63.1351 63.6961 63.6492C63.9075 63.8997 64.0102 64.0142 64.0351 64.1436C64.0587 64.2658 64.0131 64.4013 63.9244 64.6772C63.6961 65.3806 62.9885 65.7052 62.4634 65.3806Z" fill="white"/>
<path d="M63.0798 41.7626L63.1365 41.7022L63.1372 41.7028L63.0798 41.7626ZM60.6829 40.0041L60.6464 40.0785L60.6453 40.078L60.6829 40.0041ZM69.6086 45.0902L69.6695 45.034L69.6695 45.0341L69.6086 45.0902ZM71.8457 52.2324L71.7639 52.2194L71.764 52.219L71.8457 52.2324ZM72.4164 54.6943L72.4839 54.6461L72.4847 54.6474L72.4164 54.6943ZM73.9459 59.6992L73.863 59.6999V59.6992H73.9459ZM70.7728 66.3544L70.7257 66.2863L70.726 66.2861L70.7728 66.3544ZM68.9922 68.3564L69.0635 68.3987L69.0631 68.3993L68.9922 68.3564ZM61.6645 72.5497L61.6651 72.6326H61.6645V72.5497ZM59.61 72.5497L59.5501 72.4925L59.5745 72.4669H59.61V72.5497ZM56.1173 76.202L56.1772 76.2592L56.1771 76.2593L56.1173 76.202ZM52.3097 77.8419L52.3913 77.8559L52.3913 77.856L52.3097 77.8419ZM52.3098 77.8413L52.3915 77.8548L52.3914 77.8553L52.3098 77.8413ZM52.3098 77.8411L52.2281 77.8276L52.2282 77.827L52.3098 77.8411ZM52.6474 75.8773L52.5658 75.8634L52.566 75.8623L52.6474 75.8773ZM52.2594 71.3594L52.2375 71.4393L52.2358 71.4388L52.2594 71.3594ZM48.4243 68.7351L48.361 68.7886L48.4243 68.7351ZM47.1916 68.0588L47.1435 67.9912L47.1473 67.9888L47.1916 68.0588ZM45.6621 68.6269L45.6403 68.547L45.641 68.5468L45.6621 68.6269ZM40.3432 66.8143L40.2918 66.8793L40.2912 66.8788L40.3432 66.8143ZM35.5037 58.4818L35.4217 58.4942L35.4217 58.4939L35.5037 58.4818ZM40.7769 46.5781L40.7345 46.507L40.7347 46.5069L40.7769 46.5781ZM43.4934 44.008L43.4287 43.9563L43.4296 43.9552L43.4934 44.008ZM51.8485 40.0582L51.8462 39.9754L51.847 39.9754L51.8485 40.0582ZM55.5009 39.5712L55.4705 39.4942L55.4713 39.4939L55.5009 39.5712ZM59.7469 41.7084L59.7779 41.6316L59.7782 41.6318L59.7469 41.7084ZM63.057 44.9819L62.9828 45.0189L62.9828 45.0188L63.057 44.9819ZM63.6505 46.1723L63.7246 46.1353L63.7476 46.1814L63.7165 46.2224L63.6505 46.1723ZM62.8287 47.2545L62.7626 47.2045L62.7627 47.2044L62.8287 47.2545ZM65.568 52.3947L65.5987 52.4716L65.5974 52.4722L65.568 52.3947ZM65.9333 46.3887L65.9734 46.3162L65.9742 46.3167L65.9333 46.3887ZM65.2484 45.5501L65.1667 45.5639L65.1666 45.5629L65.2484 45.5501ZM67.6454 45.9018L67.6916 45.833L67.6921 45.8334L67.6454 45.9018ZM69.3118 54.3696L69.381 54.4151L69.3807 54.4156L69.3118 54.3696ZM67.9193 54.6672L67.8895 54.7445L67.8879 54.7438L67.9193 54.6672ZM64.8604 55.6682L64.7927 55.6203L64.7933 55.6195L64.8604 55.6682ZM70.3162 56.2092L70.2548 56.1537L70.2553 56.1531L70.3162 56.2092ZM70.8641 55.6141L70.8032 55.558L70.8798 55.4747L70.936 55.5729L70.8641 55.6141ZM71.2978 56.3716L71.2269 56.4143L71.2259 56.4127L71.2978 56.3716ZM63.6048 61.2953L63.5771 61.3734L63.5761 61.373L63.6048 61.2953ZM61.8471 61.4847L61.8048 61.4134L61.8058 61.4129L61.8471 61.4847ZM60.2719 64.8935L60.3538 64.8808L60.3538 64.8808L60.2719 64.8935ZM63.9472 67.3013L63.9145 67.2251L63.9168 67.2242L63.9472 67.3013ZM66.0018 67.3283L65.9839 67.4092L65.9822 67.4088L66.0018 67.3283ZM67.3486 67.6259L67.3665 67.545L67.5101 67.5768L67.4085 67.6831L67.3486 67.6259ZM66.367 68.654L66.3069 68.5969L66.3071 68.5967L66.367 68.654ZM55.752 65.6239L55.6731 65.6493L55.6731 65.6491L55.752 65.6239ZM55.3639 64.4065L55.285 64.4317L55.2713 64.3887L55.3 64.3539L55.3639 64.4065ZM56.2771 63.2973L56.2131 63.2447L56.2137 63.2439L56.2771 63.2973ZM52.4876 59.0228L52.5531 59.0736L52.5525 59.0744L52.4876 59.0228ZM52.6246 63.2973L52.6903 63.2468L52.6912 63.2481L52.6246 63.2973ZM53.903 65.8674L53.9827 65.845L53.983 65.8459L53.903 65.8674ZM56.8249 70.5207L56.8796 70.4584L56.8797 70.4585L56.8249 70.5207ZM57.8978 71.4675L57.9527 71.4054L58.0163 71.4616L57.9586 71.5239L57.8978 71.4675ZM56.3684 73.1178L56.4291 73.1741L56.4286 73.1747L56.3684 73.1178ZM54.7476 74.714L54.8109 74.6606L54.8109 74.6606L54.7476 74.714ZM55.0215 72.5497L55.1031 72.5641L55.103 72.5644L55.0215 72.5497ZM53.903 69.6279L53.9118 69.5455L53.9122 69.5456L53.903 69.6279ZM48.5612 65.3263L48.637 65.2929L48.6377 65.2944L48.5612 65.3263ZM49.0406 59.591L49.0558 59.6724L49.0553 59.6725L49.0406 59.591ZM47.4883 53.6391L47.4472 53.5672L47.4482 53.5666L47.4883 53.6391ZM46.2784 57.8595L46.3541 57.8258L46.3548 57.8273L46.2784 57.8595ZM46.2556 60.3755L46.3376 60.3873L46.3376 60.3875L46.2556 60.3755ZM46.6208 65.5428L46.7014 65.5233L46.7015 65.5239L46.6208 65.5428ZM46.0045 66.4356L45.9729 66.3589L45.9741 66.3585L46.0045 66.4356ZM42.5118 60.8084L42.5512 60.8813L42.5498 60.882L42.5118 60.8084ZM43.151 55.6141L43.212 55.558L43.2126 55.5587L43.151 55.6141ZM39.5442 55.6141L39.606 55.6692L39.6059 55.6693L39.5442 55.6141ZM38.7224 58.8876L38.6417 58.9066L38.7224 58.8876ZM38.7452 61.9717L38.6925 61.9074L38.6981 61.9035L38.7452 61.9717ZM37.444 59.2934L37.3636 59.3132L37.3635 59.3128L37.444 59.2934ZM39.43 50.3656L39.3654 50.3139L39.3654 50.3138L39.43 50.3656ZM45.1142 47.3897L45.1133 47.3069H45.1142V47.3897ZM50.0222 51.3125L49.9928 51.39L49.9911 51.3893L50.0222 51.3125ZM53.0812 50.3386L53.1477 50.3879L53.1477 50.3879L53.0812 50.3386ZM52.442 45.7124L52.3904 45.7772L52.3902 45.7771L52.442 45.7124ZM49.8852 45.523L49.9298 45.593L49.9262 45.595L49.8852 45.523ZM48.0133 45.6583L47.9951 45.7391L47.9936 45.7388L48.0133 45.6583ZM45.9588 45.2254L45.945 45.3071L45.9436 45.3069L45.9588 45.2254ZM45.4794 44.522L45.4133 44.4721L45.4137 44.4716L45.4794 44.522ZM47.3742 43.1152L47.3319 43.044L47.333 43.0433L47.3742 43.1152ZM54.6563 43.0341L54.6167 43.1068L54.6163 43.1067L54.6563 43.0341ZM58.7196 51.9618L58.7572 52.0357L58.7551 52.0367L58.7196 51.9618ZM57.5783 53.1792L57.6553 53.2098L57.654 53.2127L57.5783 53.1792ZM62.121 56.6962L62.1889 56.7437L62.1884 56.7444L62.121 56.6962ZM61.7786 52.2594L61.8443 52.209L61.8453 52.2103L61.7786 52.2594ZM61.2079 50.1492L61.1255 50.1579L61.1254 50.1572L61.2079 50.1492ZM58.0805 43.3317L58.1404 43.2744L58.1415 43.2756L58.0805 43.3317ZM51.1179 49.3648L51.1079 49.2825L51.11 49.2823L51.1179 49.3648ZM50.1363 47.7957L50.0603 47.7626L50.0608 47.7615L50.1363 47.7957ZM51.9168 48.6614L51.8343 48.6536L51.8346 48.6513L51.9168 48.6614ZM64.2438 48.3637L64.2918 48.4313L64.2888 48.4333L64.2438 48.3637ZM64.1753 50.2304L64.2341 50.1721L64.2349 50.1729L64.1753 50.2304ZM65.5221 48.5802L65.4567 48.631L65.4563 48.6304L65.5221 48.5802ZM65.0656 50.3928L65.039 50.3142L65.0427 50.3131L65.0656 50.3928ZM60.3632 55.7495L60.4146 55.8146L60.4112 55.817L60.3632 55.7495ZM59.4044 53.8287L59.351 53.7653L59.3515 53.7649L59.4044 53.8287ZM60.5001 53.8287L60.5531 53.7649L60.5542 53.7659L60.5001 53.8287ZM48.0131 55.533L47.9477 55.4821L47.9498 55.4796L48.0131 55.533ZM48.1957 57.2645L48.1396 57.3254L48.1383 57.3242L48.1957 57.2645ZM48.8806 55.4248L48.8693 55.5069L48.8691 55.5069L48.8806 55.4248ZM49.6339 56.3717L49.5514 56.3792L49.6339 56.3717ZM49.1088 57.4268L49.1343 57.5056L49.1338 57.5058L49.1088 57.4268ZM67.4855 58.6173L67.5303 58.6869L67.5292 58.6876L67.4855 58.6173ZM66.3897 56.7776L66.4531 56.831L66.3897 56.7776ZM40.7083 57.2104L40.7741 57.2609L40.7083 57.2104ZM41.9639 57.1834L41.9032 57.2398L41.9029 57.2395L41.9639 57.1834ZM53.6061 61.2143L53.6885 61.2057L53.6886 61.2063L53.6061 61.2143ZM53.8344 60.1863L53.785 60.1197L53.7879 60.1177L53.8344 60.1863ZM54.7018 60.024L54.7089 59.9411L54.7157 59.9423L54.7018 60.024ZM62.2808 63.5409L62.3441 63.5944L62.2808 63.5409ZM62.4634 65.3806L62.4198 65.4511L62.4184 65.4502L62.4634 65.3806ZM63.6961 63.6492L63.6328 63.7026L63.6314 63.7009L63.6961 63.6492ZM64.0351 64.1436L64.1165 64.1279V64.1279L64.0351 64.1436ZM63.9244 64.6772L64.0033 64.7026L64.0032 64.7028L63.9244 64.6772ZM63.0231 41.823C62.3642 41.2036 61.2981 40.3981 60.6464 40.0785L60.7193 39.9297C61.3917 40.2594 62.4714 41.0771 63.1365 41.7022L63.0231 41.823ZM65.1571 43.0087C64.8023 43.0087 64.5084 42.9451 64.1807 42.7615C63.8569 42.5801 63.5024 42.2828 63.0224 41.8224L63.1372 41.7028C63.616 42.1622 63.9577 42.4466 64.2617 42.6169C64.5617 42.785 64.8271 42.843 65.1571 42.843V43.0087ZM69.5477 45.1464C68.236 43.7259 66.7502 43.0087 65.1571 43.0087V42.843C66.8056 42.843 68.3331 43.5868 69.6695 45.034L69.5477 45.1464ZM71.764 52.219C72.1933 49.5944 71.449 47.2119 69.5476 45.1463L69.6695 45.0341C71.6033 47.1348 72.3656 49.5679 71.9275 52.2458L71.764 52.219ZM72.349 54.7424C71.9749 54.2184 71.7694 53.9137 71.6908 53.5733C71.6123 53.2332 71.6619 52.8642 71.7639 52.2194L71.9276 52.2453C71.8241 52.8992 71.7824 53.2335 71.8523 53.536C71.922 53.8381 72.1047 54.115 72.4839 54.6461L72.349 54.7424ZM73.863 59.6992C73.863 57.6866 73.4342 56.3233 72.3481 54.7412L72.4847 54.6474C73.5901 56.2576 74.0287 57.6537 74.0287 59.6992H73.863ZM70.726 66.2861C72.754 64.8974 73.8857 62.4908 73.8631 59.6999L74.0287 59.6985C74.0518 62.5348 72.9007 64.9978 70.8196 66.4228L70.726 66.2861ZM68.921 68.3141C69.3594 67.5757 70.166 66.6732 70.7257 66.2863L70.8199 66.4226C70.2839 66.7931 69.4925 67.6761 69.0635 68.3987L68.921 68.3141ZM61.6638 72.4669C63.2964 72.4534 64.68 72.1244 65.8694 71.4463C67.0589 70.7682 68.0596 69.738 68.9214 68.3135L69.0631 68.3993C68.19 69.8425 67.1704 70.8954 65.9515 71.5903C64.7325 72.2852 63.3198 72.6189 61.6651 72.6326L61.6638 72.4669ZM59.61 72.4669H61.6645V72.6326H59.61V72.4669ZM56.0574 76.1447L59.5501 72.4925L59.6698 72.607L56.1772 76.2592L56.0574 76.1447ZM52.0454 79.9083C52.0454 79.9556 52.0585 79.9404 52.041 79.9346C52.0391 79.934 52.0448 79.9364 52.0637 79.9321C52.0821 79.928 52.1076 79.9187 52.1413 79.9019C52.279 79.833 52.502 79.6642 52.8292 79.373C53.4798 78.7939 54.5163 77.7546 56.0574 76.1447L56.1771 76.2593C54.6365 77.8687 53.5956 78.9126 52.9394 79.4968C52.6131 79.7872 52.3752 79.9702 52.2155 80.0501C52.1748 80.0704 52.1361 80.0857 52.1001 80.0938C52.0647 80.1018 52.0257 80.1042 51.9884 80.0917C51.9003 80.0622 51.8797 79.9761 51.8797 79.9083H52.0454ZM52.3913 77.856C52.2893 78.4475 52.2025 78.9504 52.1413 79.3122C52.1107 79.4931 52.0865 79.6385 52.0699 79.742C52.0617 79.7937 52.0554 79.8347 52.0512 79.8642C52.0464 79.8972 52.0454 79.9089 52.0454 79.9083H51.8797C51.8797 79.8942 51.8832 79.8681 51.8871 79.8408C51.8915 79.8099 51.898 79.7679 51.9063 79.7158C51.923 79.6116 51.9473 79.4655 51.9779 79.2845C52.0392 78.9224 52.126 78.4192 52.228 77.8278L52.3913 77.856ZM52.3914 77.8553L52.3913 77.8559L52.228 77.8279L52.2281 77.8273L52.3914 77.8553ZM52.3916 77.8546L52.3915 77.8548L52.228 77.8279L52.2281 77.8276L52.3916 77.8546ZM52.7291 75.8913C52.6082 76.5985 52.4924 77.2701 52.3915 77.8552L52.2282 77.827C52.3291 77.2419 52.4449 76.5704 52.5658 75.8634L52.7291 75.8913ZM53.4151 71.8463C53.4151 71.8576 53.4131 71.8751 53.4111 71.8919C53.4087 71.9111 53.4053 71.9367 53.4008 71.968C53.3918 72.0307 53.3787 72.1179 53.3617 72.2264C53.3278 72.4437 53.2785 72.7475 53.2171 73.1146C53.0943 73.8488 52.923 74.8367 52.7289 75.8923L52.566 75.8623C52.7599 74.8077 52.931 73.8207 53.0537 73.0873C53.115 72.7205 53.1642 72.4173 53.198 72.2009C53.2149 72.0926 53.228 72.0062 53.2367 71.9446C53.2412 71.9137 53.2444 71.8893 53.2466 71.8717C53.2491 71.8516 53.2494 71.8452 53.2494 71.8463H53.4151ZM52.2812 71.2794C52.581 71.3614 52.8536 71.4575 53.0526 71.5477C53.1517 71.5926 53.2354 71.6373 53.2957 71.6796C53.3256 71.7006 53.3528 71.7231 53.3733 71.747C53.3923 71.769 53.4151 71.8032 53.4151 71.8463H53.2494C53.2494 71.8623 53.2573 71.8661 53.2477 71.855C53.2397 71.8457 53.2248 71.8323 53.2005 71.8152C53.1524 71.7814 53.0792 71.7416 52.9842 71.6986C52.7951 71.6129 52.5312 71.5196 52.2375 71.4393L52.2812 71.2794ZM48.4876 68.6817C49.5062 69.8889 50.9312 70.8794 52.2829 71.2799L52.2358 71.4388C50.8482 71.0277 49.3968 70.0162 48.361 68.7886L48.4876 68.6817ZM47.1473 67.9888C47.2397 67.9304 47.3328 67.8913 47.4328 67.884C47.5337 67.8767 47.633 67.9025 47.7364 67.9591C47.9374 68.069 48.1692 68.3044 48.4876 68.6817L48.361 68.7886C48.0401 68.4084 47.8268 68.1974 47.6569 68.1044C47.5748 68.0595 47.5072 68.0448 47.4447 68.0493C47.3813 68.0539 47.3146 68.079 47.2358 68.1288L47.1473 67.9888ZM45.641 68.5468C45.9469 68.4663 46.2697 68.3656 46.5438 68.2651C46.8211 68.1635 47.0395 68.0652 47.1436 67.9913L47.2396 68.1263C47.1153 68.2147 46.8772 68.3194 46.6009 68.4207C46.3214 68.5231 45.9937 68.6253 45.6832 68.707L45.641 68.5468ZM40.3945 66.7493C41.5222 67.6403 42.4208 68.2015 43.2436 68.4843C44.0628 68.766 44.8105 68.7729 45.6403 68.547L45.6839 68.7069C44.8244 68.9409 44.0426 68.9343 43.1897 68.641C42.3403 68.349 41.4241 67.7739 40.2918 66.8793L40.3945 66.7493ZM35.5856 58.4694C35.8583 60.2743 36.335 61.7585 37.1048 63.0833C37.8746 64.4081 38.9399 65.5776 40.3952 66.7498L40.2912 66.8788C38.8245 65.6974 37.744 64.5132 36.9615 63.1665C36.1789 61.8197 35.6968 60.3145 35.4217 58.4942L35.5856 58.4694ZM40.8193 46.6493C37.1302 48.8488 34.9052 53.8732 35.5856 58.4697L35.4217 58.4939C34.7325 53.838 36.9818 48.7443 40.7345 46.507L40.8193 46.6493ZM43.5581 44.0598C42.7333 45.0916 41.5161 46.2364 40.8191 46.6494L40.7347 46.5069C41.4074 46.1082 42.61 44.9805 43.4287 43.9563L43.5581 44.0598ZM51.8507 40.141C49.8472 40.195 48.3764 40.4512 47.1072 41.0529C45.8384 41.6544 44.7632 42.6048 43.5572 44.0609L43.4296 43.9552C44.6435 42.4895 45.7369 41.5191 47.0362 40.9032C48.3351 40.2874 49.832 40.0296 51.8462 39.9754L51.8507 40.141ZM55.5314 39.6483C54.8317 39.9247 53.3807 40.114 51.8499 40.141L51.847 39.9754C53.3751 39.9483 54.8004 39.7589 55.4705 39.4942L55.5314 39.6483ZM60.6453 40.078C59.0646 39.2751 56.9889 39.0902 55.5305 39.6486L55.4713 39.4939C56.9806 38.916 59.1052 39.1099 60.7204 39.9302L60.6453 40.078ZM56.3827 41.5732C56.3827 41.6233 56.4001 41.675 56.4256 41.7128C56.4535 41.7541 56.4773 41.7609 56.4825 41.7609V41.9266C56.3964 41.9266 56.3289 41.8657 56.2883 41.8055C56.2453 41.7419 56.217 41.6583 56.217 41.5732H56.3827ZM59.7159 41.7853C59.1576 41.5603 58.3064 41.4258 57.5923 41.399C57.2355 41.3855 56.9183 41.3992 56.6927 41.44C56.5791 41.4605 56.4947 41.4869 56.441 41.5163C56.3851 41.5469 56.3827 41.5682 56.3827 41.5732H56.217C56.217 41.4767 56.2867 41.4118 56.3614 41.3709C56.4382 41.3289 56.5429 41.2987 56.6632 41.2769C56.9056 41.2331 57.2362 41.2197 57.5985 41.2334C58.3225 41.2606 59.1949 41.3967 59.7779 41.6316L59.7159 41.7853ZM62.9828 45.0188C62.2367 43.5185 61.0177 42.3173 59.7156 41.7851L59.7782 41.6318C61.1242 42.1818 62.3705 43.4154 63.1311 44.9451L62.9828 45.0188ZM63.5763 46.2093L62.9828 45.0189L63.1311 44.945L63.7246 46.1353L63.5763 46.2093ZM62.7627 47.2044L63.5845 46.1222L63.7165 46.2224L62.8947 47.3046L62.7627 47.2044ZM61.924 49.2564C61.924 48.555 62.1634 47.9965 62.7626 47.2045L62.8947 47.3044C62.3069 48.0815 62.0897 48.6052 62.0897 49.2564H61.924ZM65.5974 52.4722C64.7395 52.7969 63.8177 52.5187 63.1164 51.9023C62.4147 51.2856 61.924 50.3232 61.924 49.2564H62.0897C62.0897 50.2728 62.5578 51.1907 63.2258 51.7778C63.8942 52.3653 64.7529 52.6147 65.5387 52.3172L65.5974 52.4722ZM65.9742 46.3167C67.1267 46.9718 67.6382 48.2709 67.5626 49.5185C67.487 50.766 66.8229 51.9834 65.5987 52.4716L65.5373 52.3177C66.6873 51.8591 67.3244 50.7093 67.3972 49.5084C67.4699 48.3076 66.977 47.0772 65.8923 46.4608L65.9742 46.3167ZM65.3301 45.5363C65.3497 45.652 65.426 45.8014 65.5441 45.9478C65.6611 46.093 65.8129 46.2275 65.9734 46.3162L65.8932 46.4612C65.7112 46.3606 65.5434 46.211 65.4151 46.0518C65.2878 45.894 65.1929 45.7186 65.1667 45.5639L65.3301 45.5363ZM67.5992 45.9706C66.9191 45.5138 66.3034 45.2508 65.8786 45.1891C65.6641 45.1579 65.5143 45.1804 65.4274 45.237C65.35 45.2873 65.3052 45.3768 65.3303 45.5373L65.1666 45.5629C65.1346 45.3581 65.1897 45.194 65.337 45.0981C65.4748 45.0084 65.6745 44.992 65.9024 45.0251C66.3622 45.0919 67.0019 45.3699 67.6916 45.833L67.5992 45.9706ZM69.2426 54.3241C70.0728 53.0609 70.2888 51.4 69.981 49.8372C69.6732 48.2744 68.8439 46.8211 67.5986 45.9702L67.6921 45.8334C68.9807 46.7139 69.8293 48.2095 70.1436 49.8052C70.4578 51.4009 70.2401 53.1082 69.381 54.4151L69.2426 54.3241ZM67.9491 54.5899C68.1784 54.6782 68.3486 54.7426 68.4836 54.7806C68.6189 54.8188 68.7083 54.8272 68.7785 54.8126C68.8458 54.7987 68.9063 54.7614 68.9789 54.6831C69.0532 54.603 69.1337 54.487 69.2429 54.3236L69.3807 54.4156C69.273 54.5768 69.1852 54.7043 69.1004 54.7958C69.0139 54.8891 68.9246 54.9516 68.8121 54.9749C68.7026 54.9975 68.5822 54.9806 68.4386 54.9401C68.2947 54.8995 68.1168 54.832 67.8895 54.7445L67.9491 54.5899ZM64.7933 55.6195C65.2226 55.0282 65.7038 54.6426 66.2359 54.47C66.7689 54.2971 67.3429 54.3412 67.9507 54.5905L67.8879 54.7438C67.3086 54.5062 66.7755 54.4692 66.287 54.6276C65.7975 54.7864 65.3427 55.1448 64.9274 55.7168L64.7933 55.6195ZM67.029 60.8642C65.8569 60.8642 64.9359 60.0574 64.4902 59.0079C64.0443 57.958 64.0658 56.6486 64.7927 55.6203L64.928 55.716C64.2396 56.6898 64.2154 57.9369 64.6427 58.9431C65.0702 59.9497 65.9412 60.6985 67.029 60.6985V60.8642ZM69.8512 57.589C69.8512 59.3809 68.5928 60.8642 67.029 60.8642V60.6985C68.4785 60.6985 69.6855 59.314 69.6855 57.589H69.8512ZM70.3777 56.2648C70.0485 56.6289 69.8512 57.1503 69.8512 57.589H69.6855C69.6855 57.1078 69.8991 56.5471 70.2548 56.1537L70.3777 56.2648ZM70.9251 55.6702L70.3772 56.2654L70.2553 56.1531L70.8032 55.558L70.9251 55.6702ZM71.2259 56.4127L70.7922 55.6552L70.936 55.5729L71.3697 56.3304L71.2259 56.4127ZM72.1966 59.6721C72.1966 58.769 71.7907 57.3498 71.2269 56.4143L71.3688 56.3288C71.9464 57.2871 72.3623 58.7356 72.3623 59.6721H72.1966ZM67.3486 65.3788C69.9389 65.3788 72.1966 62.7505 72.1966 59.6721H72.3623C72.3623 62.8161 70.0544 65.5445 67.3486 65.5445V65.3788ZM65.7422 64.163C65.7422 64.4463 65.7552 64.661 65.7951 64.8258C65.8345 64.988 65.8986 65.0961 65.9981 65.1728C66.1002 65.2515 66.2485 65.3044 66.4705 65.3365C66.6921 65.3686 66.9781 65.3788 67.3486 65.3788V65.5445C66.9772 65.5445 66.681 65.5344 66.4468 65.5005C66.213 65.4667 66.0318 65.408 65.897 65.304C65.7597 65.1982 65.6797 65.0526 65.6341 64.8648C65.5892 64.6796 65.5765 64.4479 65.5765 64.163H65.7422ZM63.6326 61.2173C64.2218 61.4268 64.7484 61.858 65.1274 62.3867C65.5065 62.9154 65.7422 63.5474 65.7422 64.163H65.5765C65.5765 63.5883 65.3556 62.9894 64.9928 62.4833C64.6299 61.9772 64.1293 61.5697 63.5771 61.3734L63.6326 61.2173ZM61.8058 61.4129C62.1833 61.196 62.4532 61.0729 62.7257 61.0439C62.9997 61.0147 63.266 61.0815 63.6336 61.2177L63.5761 61.373C63.2131 61.2386 62.9772 61.1837 62.7433 61.2086C62.5079 61.2337 62.2641 61.3406 61.8883 61.5566L61.8058 61.4129ZM60.1901 64.9062C59.9796 63.5484 60.6332 62.1077 61.8048 61.4134L61.8893 61.556C60.7782 62.2144 60.1533 63.5873 60.3538 64.8808L60.1901 64.9062ZM63.9799 67.3774C62.3435 68.0801 60.4931 66.8673 60.1901 64.9061L60.3538 64.8808C60.6443 66.7613 62.4007 67.8752 63.9146 67.2251L63.9799 67.3774ZM65.9822 67.4088C64.9843 67.1669 64.5021 67.1711 63.9777 67.3783L63.9168 67.2242C64.4881 66.9985 65.0103 67.0027 66.0213 67.2478L65.9822 67.4088ZM67.3307 67.7068L65.9839 67.4092L66.0196 67.2474L67.3665 67.545L67.3307 67.7068ZM66.3071 68.5967L67.2887 67.5687L67.4085 67.6831L66.4269 68.7112L66.3071 68.5967ZM55.8309 65.5986C57.3903 70.4466 63.048 72.0329 66.3069 68.5969L66.4271 68.711C63.0659 72.2548 57.2639 70.5947 55.6731 65.6493L55.8309 65.5986ZM55.4429 64.3814L55.831 65.5988L55.6731 65.6491L55.285 64.4317L55.4429 64.3814ZM56.341 63.35L55.4279 64.4592L55.3 64.3539L56.2131 63.2447L56.341 63.35ZM57.2959 61.2142C57.2959 61.6139 57.2492 61.924 57.1031 62.2491C56.9583 62.5714 56.7179 62.9034 56.3404 63.3507L56.2137 63.2439C56.5896 62.7985 56.8171 62.4812 56.952 62.1812C57.0855 61.8841 57.1302 61.599 57.1302 61.2142H57.2959ZM52.4221 58.9721C53.3331 57.7956 54.5547 57.543 55.5528 58.0041C56.5466 58.4633 57.2959 59.6196 57.2959 61.2142H57.1302C57.1302 59.6705 56.407 58.5813 55.4833 58.1545C54.5638 57.7297 53.4228 57.9505 52.5531 59.0736L52.4221 58.9721ZM52.5589 63.3479C51.959 62.5686 51.6408 61.8285 51.6173 61.1019C51.5936 60.374 51.8661 59.6722 52.4227 58.9713L52.5525 59.0744C52.0134 59.7532 51.7608 60.4176 51.7829 61.0965C51.8049 61.7767 52.1031 62.484 52.6902 63.2468L52.5589 63.3479ZM53.8232 65.8899C53.5979 65.089 53.0321 63.9887 52.5579 63.3465L52.6912 63.2481C53.1759 63.9045 53.7514 65.0226 53.9827 65.845L53.8232 65.8899ZM56.7702 70.5829C55.3431 69.3281 54.3067 67.6909 53.8229 65.8889L53.983 65.8459C54.458 67.6151 55.4761 69.2243 56.8796 70.4584L56.7702 70.5829ZM57.843 71.5297L56.7701 70.5828L56.8797 70.4585L57.9527 71.4054L57.843 71.5297ZM56.3076 73.0615L57.8371 71.4112L57.9586 71.5239L56.4291 73.1741L56.3076 73.0615ZM54.8109 74.6606C54.7937 74.6402 54.7717 74.6337 54.7572 74.6323C54.744 74.631 54.734 74.6334 54.73 74.6345C54.7219 74.6367 54.7174 74.6395 54.719 74.6387C54.7206 74.6377 54.7264 74.634 54.7375 74.6254C54.7589 74.6088 54.7909 74.5816 54.8331 74.5437C54.9171 74.4683 55.0367 74.3551 55.1833 74.2118C55.4763 73.9252 55.875 73.5202 56.3081 73.061L56.4286 73.1747C55.9943 73.6353 55.594 74.0419 55.2992 74.3302C55.1519 74.4743 55.0303 74.5893 54.9438 74.667C54.9008 74.7056 54.8652 74.7361 54.8389 74.7564C54.8262 74.7663 54.8131 74.7757 54.8011 74.7826C54.7958 74.7856 54.7858 74.791 54.7735 74.7943C54.7675 74.796 54.7557 74.7986 54.7412 74.7972C54.7252 74.7956 54.7022 74.7886 54.6843 74.7674L54.8109 74.6606ZM55.103 72.5644C55.0006 73.1313 54.9209 73.6573 54.8726 74.0478C54.8484 74.2432 54.8323 74.4038 54.8249 74.5181C54.8212 74.5755 54.8199 74.6196 54.8206 74.65C54.821 74.6654 54.8219 74.6752 54.8227 74.6805C54.8232 74.6831 54.8233 74.6829 54.8226 74.6808C54.8223 74.6799 54.8195 74.6708 54.8109 74.6606L54.6843 74.7674C54.6728 74.7538 54.6674 74.7395 54.6649 74.7317C54.662 74.7227 54.6602 74.7138 54.659 74.706C54.6566 74.6906 54.6555 74.6727 54.655 74.6541C54.6541 74.6165 54.6558 74.5667 54.6596 74.5075C54.6672 74.3885 54.6838 74.2243 54.7082 74.0275C54.7569 73.6334 54.837 73.1044 54.94 72.535L55.103 72.5644ZM55.4696 70.1149C55.4696 70.1683 55.4588 70.2768 55.4408 70.4218C55.4225 70.569 55.396 70.7591 55.3631 70.9793C55.2974 71.4197 55.2059 71.9818 55.1031 72.5641L54.9399 72.5353C55.0426 71.9543 55.1337 71.3936 55.1993 70.9548C55.232 70.7354 55.2583 70.5467 55.2764 70.4014C55.2947 70.2539 55.3039 70.1561 55.3039 70.1149H55.4696ZM53.9122 69.5456C54.3932 69.5999 54.7708 69.6682 55.0299 69.752C55.159 69.7937 55.2643 69.8409 55.3389 69.896C55.4132 69.9508 55.4696 70.0232 55.4696 70.1149H55.3039C55.3039 70.0983 55.2947 70.0693 55.2406 70.0294C55.1868 69.9897 55.101 69.9491 54.9789 69.9096C54.7358 69.8311 54.3715 69.7641 53.8937 69.7102L53.9122 69.5456ZM48.6377 65.2944C49.1816 66.5971 49.882 67.5924 50.7534 68.2953C51.6242 68.9977 52.6702 69.4117 53.9118 69.5455L53.8941 69.7103C52.6246 69.5735 51.5477 69.1489 50.6493 68.4242C49.7515 67.7 49.0366 66.6798 48.4848 65.3583L48.6377 65.2944ZM47.9364 62.2963C47.9364 63.2838 48.1157 64.1111 48.637 65.2929L48.4854 65.3598C47.9566 64.1609 47.7707 63.3108 47.7707 62.2963H47.9364ZM49.0553 59.6725C48.7948 59.7195 48.6009 59.7734 48.4531 59.8574C48.3088 59.9395 48.2051 60.0524 48.1292 60.2261C48.0519 60.4031 48.0029 60.6443 47.9739 60.9828C47.945 61.3206 47.9364 61.7487 47.9364 62.2963H47.7707C47.7707 61.7483 47.7792 61.3141 47.8088 60.9687C47.8383 60.6241 47.8892 60.3615 47.9774 60.1597C48.067 59.9547 48.1944 59.8139 48.3712 59.7134C48.5444 59.6149 48.7614 59.5571 49.0259 59.5094L49.0553 59.6725ZM51.5889 56.6151C51.5889 57.3012 51.2882 58.0024 50.8251 58.5617C50.3619 59.1209 49.7295 59.5463 49.0558 59.6724L49.0254 59.5095C49.6529 59.3921 50.2532 58.9924 50.6975 58.456C51.1417 57.9195 51.4232 57.2545 51.4232 56.6151H51.5889ZM47.4482 53.5666C48.5002 52.9848 49.54 53.0572 50.3168 53.63C51.0907 54.2006 51.5889 55.2567 51.5889 56.6151H51.4232C51.4232 55.2951 50.9397 54.2951 50.2184 53.7633C49.5 53.2336 48.5309 53.1572 47.5284 53.7116L47.4482 53.5666ZM46.2028 57.8933C45.8738 57.1554 45.8578 56.2625 46.0846 55.4629C46.3113 54.6638 46.7842 53.9461 47.4472 53.5672L47.5294 53.7111C46.9141 54.0627 46.4624 54.7382 46.244 55.5082C46.0257 56.2777 46.0438 57.1298 46.3541 57.8258L46.2028 57.8933ZM46.1736 60.3638C46.2762 59.6478 46.3269 59.1315 46.3297 58.7416C46.3325 58.352 46.2874 58.0939 46.2021 57.8917L46.3548 57.8273C46.4521 58.058 46.4983 58.341 46.4954 58.7427C46.4925 59.1442 46.4405 59.6694 46.3376 60.3873L46.1736 60.3638ZM46.5403 65.5623C46.2547 64.3844 46.0936 63.5538 46.0388 62.7824C45.984 62.0099 46.0362 61.3001 46.1736 60.3635L46.3376 60.3875C46.2011 61.3177 46.1505 62.0146 46.2041 62.7707C46.2578 63.5278 46.4163 64.3475 46.7014 65.5233L46.5403 65.5623ZM45.9741 66.3585C46.2843 66.2359 46.4433 66.1419 46.5185 66.0333C46.5884 65.9323 46.5963 65.8012 46.5402 65.5617L46.7015 65.5239C46.7595 65.7713 46.7674 65.9649 46.6547 66.1276C46.5473 66.2828 46.3411 66.3917 46.0349 66.5126L45.9741 66.3585ZM40.6315 62.107C40.6315 65.2563 43.4163 67.4128 45.9729 66.359L46.0361 66.5121C43.3423 67.6226 40.4658 65.3422 40.4658 62.107H40.6315ZM41.0737 61.4052C40.863 61.4052 40.7707 61.4454 40.7179 61.5265C40.6885 61.5717 40.6661 61.6372 40.6516 61.7341C40.6372 61.8307 40.6315 61.9527 40.6315 62.107H40.4658C40.4658 61.9501 40.4715 61.8184 40.4877 61.7096C40.5039 61.6011 40.5314 61.5093 40.5791 61.4361C40.6803 61.2805 40.8506 61.2396 41.0737 61.2396V61.4052ZM42.5498 60.882C42.2844 61.0188 41.9902 61.1487 41.727 61.2447C41.4676 61.3393 41.2268 61.4052 41.0737 61.4052V61.2396C41.1944 61.2396 41.4103 61.1838 41.6702 61.089C41.9263 60.9956 42.2142 60.8685 42.4739 60.7347L42.5498 60.882ZM43.2126 55.5587C44.7263 57.2422 44.4093 59.8778 42.5512 60.8813L42.4725 60.7355C44.2212 59.7911 44.5433 57.2865 43.0894 55.6695L43.2126 55.5587ZM39.4824 55.5589C39.9251 55.0625 40.6417 54.8277 41.348 54.8312C42.0543 54.8347 42.7698 55.0764 43.212 55.558L43.09 55.6701C42.6876 55.2319 42.022 55.0002 41.3472 54.9969C40.6724 54.9936 40.0079 55.2187 39.606 55.6692L39.4824 55.5589ZM38.6417 58.9066C38.3618 57.7175 38.665 56.4722 39.4825 55.5588L39.6059 55.6693C38.8254 56.5414 38.5351 57.731 38.803 58.8686L38.6417 58.9066ZM38.6981 61.9035C38.7107 61.8949 38.7329 61.8674 38.7564 61.8038C38.7788 61.7432 38.7983 61.6615 38.8139 61.5608C38.845 61.3598 38.8592 61.0942 38.8564 60.7956C38.8507 60.1986 38.7771 59.4812 38.6417 58.9066L38.803 58.8686C38.9416 59.4573 39.0163 60.1872 39.0221 60.7941C39.025 61.0975 39.0107 61.3729 38.9776 61.5862C38.9611 61.6926 38.9395 61.7863 38.9118 61.8613C38.8852 61.9331 38.8483 62.0012 38.7923 62.0398L38.6981 61.9035ZM37.5245 59.2735C37.7406 60.1497 37.99 60.874 38.2205 61.347C38.3363 61.5848 38.4442 61.7523 38.5364 61.8447C38.5827 61.8911 38.6186 61.912 38.6432 61.9186C38.6625 61.9237 38.6763 61.921 38.6927 61.9076L38.7978 62.0357C38.7399 62.0832 38.671 62.0974 38.6006 62.0787C38.5355 62.0614 38.4747 62.0176 38.419 61.9617C38.3071 61.8495 38.1896 61.6619 38.0715 61.4196C37.834 60.9322 37.5812 60.1956 37.3636 59.3132L37.5245 59.2735ZM39.4947 50.4174C37.4335 52.9945 36.7544 56.0794 37.5246 59.274L37.3635 59.3128C36.5813 56.0686 37.272 52.9311 39.3654 50.3139L39.4947 50.4174ZM45.1151 47.4726C43.9029 47.486 42.9294 47.6872 42.0451 48.1496C41.1601 48.6125 40.3581 49.3403 39.4947 50.4175L39.3654 50.3138C40.2369 49.2267 41.0557 48.4801 41.9684 48.0028C42.8818 47.5251 43.8829 47.3205 45.1133 47.3069L45.1151 47.4726ZM48.2273 48.553C48.2273 48.3239 48.1911 48.1506 48.1065 48.0159C48.0228 47.8824 47.8849 47.7761 47.6597 47.6942C47.2022 47.5276 46.4186 47.4726 45.1142 47.4726V47.3069C46.4121 47.3069 47.2265 47.3601 47.7164 47.5385C47.9649 47.6289 48.138 47.7543 48.2469 47.9278C48.3549 48.0999 48.393 48.3088 48.393 48.553H48.2273ZM49.9911 51.3893C49.5025 51.1916 49.0623 50.7714 48.7448 50.2606C48.427 49.7492 48.2273 49.1391 48.2273 48.553H48.393C48.393 49.1033 48.5813 49.6835 48.8855 50.1731C49.1901 50.6632 49.6059 51.0547 50.0533 51.2357L49.9911 51.3893ZM53.1477 50.3879C52.7294 50.9525 52.2538 51.324 51.7223 51.4929C51.1902 51.662 50.6115 51.6251 49.9928 51.39L50.0516 51.2351C50.6428 51.4598 51.1826 51.4906 51.6721 51.335C52.1622 51.1793 52.6111 50.8338 53.0146 50.2893L53.1477 50.3879ZM52.4936 45.6476C53.273 46.268 53.7307 47.0574 53.8452 47.8925C53.9597 48.7276 53.73 49.6012 53.1477 50.3879L53.0146 50.2893C53.5737 49.5339 53.7891 48.7031 53.6811 47.915C53.573 47.1268 53.1404 46.3742 52.3904 45.7772L52.4936 45.6476ZM49.8408 45.4531C50.3173 45.1501 50.7461 45.0057 51.1783 45.038C51.6097 45.0702 52.0306 45.2772 52.4937 45.6477L52.3902 45.7771C51.9402 45.4171 51.5507 45.2319 51.166 45.2032C50.7822 45.1746 50.3891 45.3008 49.9297 45.5929L49.8408 45.4531ZM48.0316 45.5775C48.5101 45.6855 48.8251 45.7303 49.0888 45.7109C49.3489 45.6919 49.565 45.6099 49.8443 45.451L49.9262 45.595C49.6348 45.7608 49.3944 45.8547 49.1009 45.8762C48.811 45.8974 48.4754 45.8475 47.9951 45.7391L48.0316 45.5775ZM45.9727 45.1437C46.4543 45.2253 47.3694 45.4151 48.0331 45.5778L47.9936 45.7388C47.3333 45.5768 46.4221 45.3879 45.945 45.3071L45.9727 45.1437ZM45.5456 44.572C45.4471 44.7024 45.3791 44.7946 45.3418 44.8648C45.3032 44.9376 45.3145 44.9554 45.3176 44.9602C45.3219 44.9667 45.3332 44.9786 45.362 44.9936C45.3905 45.0085 45.4308 45.0237 45.4863 45.0397C45.5977 45.0718 45.7563 45.1032 45.9741 45.144L45.9436 45.3069C45.7277 45.2665 45.5609 45.2336 45.4405 45.1989C45.3801 45.1815 45.3278 45.1627 45.2853 45.1405C45.243 45.1184 45.2047 45.0902 45.1791 45.0511C45.1222 44.9645 45.152 44.8691 45.1955 44.7872C45.2403 44.7027 45.3177 44.5987 45.4133 44.4721L45.5456 44.572ZM47.4164 43.1865C47.0079 43.4286 46.5936 43.7043 46.2535 43.9562C45.9106 44.2103 45.6514 44.4341 45.5452 44.5725L45.4137 44.4716C45.5358 44.3124 45.8131 44.0763 46.1549 43.8231C46.4997 43.5677 46.9187 43.2888 47.3319 43.044L47.4164 43.1865ZM51.0495 42.3324C50.0551 42.3324 49.4883 42.353 48.9998 42.4688C48.5133 42.5841 48.1001 42.7949 47.4153 43.1871L47.333 43.0433C48.0179 42.651 48.4494 42.429 48.9616 42.3076C49.4718 42.1866 50.0578 42.1667 51.0495 42.1667V42.3324ZM54.6163 43.1067C53.9788 42.7559 53.5651 42.5646 53.0751 42.459C52.5828 42.3529 52.0091 42.3324 51.0495 42.3324V42.1667C52.0073 42.1667 52.5979 42.1867 53.11 42.297C53.6244 42.4079 54.0554 42.6089 54.6962 42.9615L54.6163 43.1067ZM59.4129 50.7714C59.4129 49.4668 58.8444 47.8928 57.956 46.4698C57.0679 45.0474 55.8675 43.7879 54.6167 43.1068L54.6959 42.9613C55.979 43.66 57.1983 44.9435 58.0965 46.3821C58.9944 47.8201 59.5786 49.4248 59.5786 50.7714H59.4129ZM58.6821 51.8879C59.0001 51.7264 59.1766 51.5994 59.2779 51.4433C59.3784 51.2885 59.4129 51.0927 59.4129 50.7714H59.5786C59.5786 51.0995 59.5447 51.3365 59.4169 51.5335C59.29 51.7291 59.0784 51.8725 58.7572 52.0357L58.6821 51.8879ZM57.5013 53.1487C57.5974 52.9064 57.7754 52.6476 57.9857 52.4226C58.196 52.1977 58.4438 52.0009 58.6842 51.887L58.7551 52.0367C58.5389 52.1392 58.3074 52.3211 58.1067 52.5358C57.9061 52.7504 57.7417 52.9921 57.6553 53.2098L57.5013 53.1487ZM62.1884 56.7444C61.635 57.5176 60.9639 57.9111 60.289 58.0017C59.6153 58.0921 58.948 57.8792 58.4036 57.4584C57.3145 56.6165 56.7111 54.9388 57.5025 53.1458L57.654 53.2127C56.8931 54.9366 57.4767 56.5324 58.5049 57.3273C59.0192 57.7249 59.6431 57.9212 60.267 57.8374C60.8898 57.7539 61.5227 57.3899 62.0536 56.648L62.1884 56.7444ZM61.8453 52.2103C62.9565 53.7193 63.1045 55.436 62.1889 56.7437L62.0531 56.6487C62.9181 55.4133 62.7921 53.7754 61.7119 52.3085L61.8453 52.2103ZM61.2903 50.1405C61.3355 50.5691 61.4203 51.0179 61.5219 51.3958C61.5727 51.5848 61.6274 51.7549 61.683 51.8954C61.7391 52.0371 61.7942 52.1437 61.8443 52.209L61.7129 52.3098C61.6488 52.2263 61.587 52.1029 61.5289 51.9564C61.4704 51.8085 61.4138 51.6321 61.3619 51.4389C61.258 51.0525 61.1716 50.5951 61.1255 50.1579L61.2903 50.1405ZM58.1415 43.2756C59.8192 45.1005 61.0602 47.7683 61.2904 50.1412L61.1254 50.1572C60.899 47.8228 59.6746 45.1881 58.0195 43.3877L58.1415 43.2756ZM56.4825 41.7609C56.5072 41.7609 56.5294 41.7692 56.5443 41.7757C56.561 41.7831 56.5786 41.7931 56.5964 41.8043C56.632 41.8268 56.6749 41.8587 56.7231 41.8975C56.8201 41.9756 56.9453 42.0871 57.0899 42.2229C57.3796 42.4949 57.7517 42.868 58.1403 43.2744L58.0206 43.3889C57.6331 42.9837 57.2633 42.6129 56.9765 42.3437C56.833 42.209 56.7114 42.1008 56.6192 42.0266C56.573 41.9894 56.5358 41.962 56.5079 41.9444C56.4939 41.9356 56.4838 41.9302 56.4772 41.9273C56.4688 41.9236 56.4721 41.9266 56.4825 41.9266V41.7609ZM51.1279 49.447C50.655 49.5045 50.2791 49.3244 50.0773 48.9993C49.8771 48.6768 49.8581 48.2278 50.0603 47.7626L50.2122 47.8287C50.0264 48.2563 50.053 48.6459 50.2181 48.9119C50.3815 49.1752 50.6904 49.3333 51.1079 49.2825L51.1279 49.447ZM51.9993 48.6691C51.9758 48.9197 51.9156 49.1083 51.769 49.2375C51.6254 49.3642 51.4139 49.4199 51.1257 49.4473L51.11 49.2823C51.3925 49.2555 51.5577 49.203 51.6594 49.1133C51.7583 49.0261 51.8122 48.8901 51.8343 48.6536L51.9993 48.6691ZM50.0608 47.7615C50.1941 47.4671 50.3936 47.2833 50.621 47.2023C50.8476 47.1216 51.0924 47.1463 51.3106 47.2509C51.7471 47.46 52.083 47.9892 51.9991 48.6715L51.8346 48.6513C51.9104 48.035 51.6072 47.5767 51.239 47.4003C51.0549 47.3121 50.856 47.2945 50.6766 47.3584C50.4981 47.422 50.3295 47.5696 50.2117 47.8298L50.0608 47.7615ZM64.2888 48.4333C64.0709 48.5741 63.9439 48.8921 63.9328 49.2489C63.9218 49.6037 64.0272 49.9637 64.2341 50.1721L64.1165 50.2888C63.8668 50.0373 63.7553 49.6262 63.7672 49.2438C63.779 48.8634 63.9144 48.478 64.1988 48.2942L64.2888 48.4333ZM65.4563 48.6304C65.24 48.3471 65.08 48.2162 64.9201 48.1883C64.7617 48.1607 64.5753 48.2296 64.2918 48.4313L64.1958 48.2962C64.4829 48.092 64.7188 47.9851 64.9486 48.0251C65.1767 48.0649 65.3706 48.2451 65.588 48.5299L65.4563 48.6304ZM65.0427 50.3131C65.7268 50.1166 65.9544 49.2721 65.4567 48.631L65.5876 48.5294C66.1399 49.2409 65.911 50.2361 65.0885 50.4724L65.0427 50.3131ZM64.2349 50.1729C64.3111 50.2519 64.4363 50.3136 64.5846 50.3418C64.7319 50.3699 64.8942 50.3633 65.039 50.3143L65.0922 50.4712C64.9174 50.5304 64.7258 50.5374 64.5536 50.5046C64.3823 50.472 64.2222 50.3984 64.1157 50.288L64.2349 50.1729ZM60.4112 55.817C60.1588 55.9965 59.899 56.0063 59.6714 55.9012C59.4489 55.7985 59.2645 55.5897 59.1419 55.3434C58.899 54.8555 58.8761 54.1653 59.351 53.7653L59.4578 53.8921C59.0653 54.2226 59.0651 54.8173 59.2902 55.2696C59.4016 55.4933 59.5625 55.6684 59.7409 55.7508C59.9143 55.8309 60.111 55.8272 60.3152 55.682L60.4112 55.817ZM60.5542 53.7659C60.8322 54.0055 60.9378 54.4079 60.9081 54.7954C60.8783 55.1838 60.7113 55.58 60.4145 55.8145L60.3118 55.6845C60.5629 55.4861 60.7156 55.1384 60.7428 54.7828C60.7702 54.4263 60.6703 54.0847 60.4461 53.8914L60.5542 53.7659ZM59.9523 53.3941C59.9747 53.3941 59.9965 53.4002 60.0133 53.4061C60.0315 53.4124 60.0512 53.421 60.0714 53.4311C60.1119 53.4511 60.1597 53.4791 60.2111 53.5121C60.3141 53.5784 60.4367 53.6684 60.553 53.7649L60.4473 53.8924C60.3354 53.7996 60.2182 53.7137 60.1215 53.6515C60.073 53.6203 60.0309 53.5959 59.9979 53.5796C59.9814 53.5714 59.9685 53.5659 59.959 53.5626C59.948 53.5588 59.947 53.5598 59.9523 53.5598V53.3941ZM59.3515 53.7649C59.4679 53.6684 59.5904 53.5784 59.6934 53.5121C59.7448 53.4791 59.7926 53.4511 59.8331 53.4311C59.8534 53.421 59.873 53.4124 59.8913 53.4061C59.9081 53.4002 59.9299 53.3941 59.9523 53.3941V53.5598C59.9576 53.5598 59.9565 53.5588 59.9456 53.5626C59.9361 53.5659 59.9231 53.5714 59.9066 53.5796C59.8737 53.5959 59.8316 53.6203 59.7831 53.6515C59.6864 53.7137 59.5692 53.7996 59.4573 53.8924L59.3515 53.7649ZM48.0785 55.5839C48.0221 55.6563 47.9797 55.7709 47.9565 55.9156C47.9336 56.0588 47.9306 56.224 47.9472 56.3906C47.9637 56.5571 47.9995 56.7226 48.0523 56.8664C48.1056 57.0112 48.1742 57.1287 48.2532 57.2048L48.1383 57.3242C48.0346 57.2244 47.9549 57.0815 47.8968 56.9236C47.8384 56.7648 47.8 56.5853 47.7823 56.4069C47.7646 56.2286 47.7673 56.0489 47.7929 55.8894C47.8182 55.7314 47.8671 55.5857 47.9477 55.4821L48.0785 55.5839ZM48.8691 55.5069C48.6819 55.4808 48.4953 55.4809 48.3462 55.5002C48.2715 55.5099 48.2083 55.5241 48.1601 55.541C48.1094 55.5589 48.0849 55.5764 48.0764 55.5865L47.9498 55.4796C47.987 55.4356 48.0452 55.4058 48.1051 55.3847C48.1674 55.3628 48.2426 55.3465 48.3249 55.3359C48.4897 55.3146 48.6911 55.3148 48.892 55.3428L48.8691 55.5069ZM49.5514 56.3792C49.5343 56.1903 49.5161 56.0464 49.4901 55.9344C49.464 55.8226 49.4315 55.7489 49.3894 55.6964C49.3071 55.5935 49.1695 55.5479 48.8693 55.5069L48.8918 55.3427C49.1852 55.3829 49.39 55.432 49.5188 55.5929C49.5824 55.6723 49.6225 55.7727 49.6514 55.8968C49.6803 56.0207 49.6992 56.1743 49.7164 56.3642L49.5514 56.3792ZM49.0834 57.348C49.335 57.2666 49.4518 57.2003 49.5118 57.0843C49.5429 57.0243 49.5622 56.9442 49.5686 56.8287C49.5751 56.7131 49.5684 56.5675 49.5514 56.3792L49.7164 56.3642C49.7336 56.5547 49.7412 56.71 49.7341 56.8379C49.727 56.9659 49.7049 57.0718 49.659 57.1605C49.5649 57.3422 49.3849 57.4246 49.1343 57.5056L49.0834 57.348ZM48.2519 57.2036C48.4327 57.3702 48.7659 57.4483 49.0839 57.3478L49.1338 57.5058C48.767 57.6217 48.3697 57.5375 48.1396 57.3254L48.2519 57.2036ZM67.5292 58.6876C67.2691 58.8491 67.0063 58.8698 66.7733 58.7885C66.543 58.7081 66.3492 58.5307 66.2159 58.3081C65.9501 57.8642 65.9115 57.2159 66.3264 56.7242L66.4531 56.831C66.0919 57.2591 66.1217 57.8282 66.3581 58.223C66.4759 58.4198 66.6417 58.567 66.8279 58.632C67.0116 58.6961 67.2224 58.683 67.4418 58.5469L67.5292 58.6876ZM67.0289 56.3701C67.5441 56.3701 67.8772 56.833 67.9803 57.3254C68.0839 57.8197 67.9704 58.4038 67.5303 58.6869L67.4407 58.5476C67.7996 58.3167 67.9143 57.8186 67.8181 57.3593C67.7215 56.8981 67.4269 56.5358 67.0289 56.5358V56.3701ZM66.3264 56.7242C66.4146 56.6197 66.5324 56.532 66.6549 56.4703C66.7769 56.4088 66.9096 56.3701 67.0289 56.3701V56.5358C66.9427 56.5358 66.8358 56.5647 66.7295 56.6183C66.6238 56.6715 66.5247 56.7461 66.4531 56.831L66.3264 56.7242ZM40.7741 57.2609C40.4447 57.6902 40.3692 58.1491 40.4818 58.4934C40.5928 58.8332 40.891 59.0754 41.3475 59.0754V59.2411C40.8224 59.2411 40.4586 58.9558 40.3243 58.5449C40.1914 58.1384 40.2871 57.6234 40.6426 57.16L40.7741 57.2609ZM41.9029 57.2395C41.7675 57.0924 41.6544 56.9882 41.5548 56.9217C41.4558 56.8557 41.3758 56.8308 41.3048 56.8333C41.2341 56.8358 41.1595 56.8661 41.0718 56.9361C40.9833 57.0068 40.8869 57.1138 40.7741 57.2609L40.6426 57.16C40.7581 57.0095 40.8642 56.8899 40.9684 56.8067C41.0733 56.7228 41.1812 56.6719 41.2989 56.6677C41.4162 56.6635 41.5303 56.7062 41.6467 56.7839C41.7626 56.8612 41.8862 56.9767 42.0248 57.1273L41.9029 57.2395ZM41.3475 59.0754C41.7992 59.0754 42.1058 58.8043 42.2186 58.4405C42.3321 58.0745 42.2492 57.6114 41.9032 57.2398L42.0245 57.1269C42.4091 57.5399 42.5087 58.0643 42.3769 58.4896C42.2443 58.9171 41.8775 59.2411 41.3475 59.2411V59.0754ZM53.5237 61.223C53.5 60.9986 53.5117 60.7666 53.5536 60.5713C53.5746 60.4737 53.6036 60.3833 53.6408 60.3069C53.6776 60.2312 53.7248 60.1643 53.7851 60.1197L53.8837 60.2529C53.8526 60.2759 53.82 60.3172 53.7897 60.3794C53.7599 60.4408 53.7346 60.5178 53.7156 60.6061C53.6777 60.7829 53.6665 60.9972 53.6885 61.2057L53.5237 61.223ZM54.4736 62.0817C54.2964 62.0817 54.1519 62.0768 54.0352 62.0569C53.9176 62.0369 53.8206 62.0005 53.7446 61.9319C53.6686 61.8632 53.6227 61.7705 53.5911 61.6556C53.5598 61.5416 53.5408 61.3985 53.5236 61.2224L53.6886 61.2063C53.7057 61.3819 53.7237 61.5127 53.7509 61.6117C53.7779 61.7099 53.8118 61.7693 53.8557 61.8089C53.8995 61.8485 53.9623 61.8764 54.063 61.8936C54.1646 61.9109 54.2969 61.9161 54.4736 61.9161V62.0817ZM55.3554 61.052C55.3554 61.2745 55.3526 61.4503 55.3359 61.5867C55.3192 61.7224 55.2874 61.8325 55.2189 61.9137C55.1484 61.9971 55.0502 62.0374 54.9303 62.0581C54.812 62.0786 54.6609 62.0817 54.4736 62.0817V61.9161C54.6629 61.9161 54.8 61.9125 54.9021 61.8949C55.0026 61.8775 55.0571 61.8485 55.0922 61.8068C55.1293 61.7629 55.156 61.692 55.1714 61.5665C55.1867 61.4417 55.1897 61.2759 55.1897 61.052H55.3554ZM54.7157 59.9423C54.9575 59.9832 55.1359 60.042 55.239 60.2231C55.288 60.3093 55.3163 60.4171 55.333 60.5501C55.3497 60.6835 55.3554 60.8483 55.3554 61.052H55.1897C55.1897 60.85 55.184 60.6935 55.1686 60.5707C55.1531 60.4476 55.1286 60.3643 55.095 60.3051C55.0325 60.1953 54.9256 60.1459 54.688 60.1057L54.7157 59.9423ZM53.7879 60.1177C53.8816 60.0543 54.0315 60.0043 54.1924 59.9731C54.3555 59.9415 54.5402 59.9271 54.7088 59.9414L54.6949 60.1065C54.5439 60.0938 54.3748 60.1065 54.224 60.1357C54.071 60.1654 53.947 60.2101 53.8808 60.2549L53.7879 60.1177ZM62.3441 63.5944C62.1458 63.8294 62.068 64.1835 62.1035 64.5232C62.1392 64.8642 62.2861 65.1673 62.5084 65.311L62.4184 65.4502C62.1385 65.2692 61.9773 64.9095 61.9387 64.5404C61.9 64.1699 61.9821 63.7665 62.2175 63.4875L62.3441 63.5944ZM63.6314 63.7009C63.4375 63.4583 63.2004 63.3306 62.9733 63.3124C62.7478 63.2944 62.5221 63.3834 62.3441 63.5944L62.2175 63.4875C62.4276 63.2385 62.7041 63.1247 62.9865 63.1472C63.2673 63.1697 63.5439 63.326 63.7608 63.5974L63.6314 63.7009ZM63.9538 64.1593C63.9446 64.1118 63.9207 64.0624 63.8685 63.9904C63.8156 63.9175 63.7399 63.8295 63.6328 63.7026L63.7594 63.5957C63.8638 63.7193 63.9451 63.8138 64.0026 63.8931C64.0608 63.9734 64.1007 64.046 64.1165 64.1279L63.9538 64.1593ZM63.8455 64.6518C63.8904 64.5122 63.9226 64.4134 63.9412 64.3339C63.9595 64.2556 63.9624 64.2042 63.9538 64.1593L64.1165 64.1279C64.1314 64.2053 64.1233 64.2827 64.1025 64.3716C64.082 64.4594 64.0471 64.5663 64.0033 64.7026L63.8455 64.6518ZM62.507 65.3101C62.973 65.5983 63.6287 65.32 63.8456 64.6516L64.0032 64.7028C63.7635 65.4412 63.0039 65.8122 62.4198 65.4511L62.507 65.3101Z" fill="white" mask="url(#path-18-inside-3_76_348)"/>
</g>
<defs>
<filter id="filter0_f_76_348" x="0.317627" y="-2.82715" width="110.967" height="136.317" filterUnits="userSpaceOnUse" color-interpolation-filters="sRGB">
<feFlood flood-opacity="0" result="BackgroundImageFix"/>
<feBlend mode="normal" in="SourceGraphic" in2="BackgroundImageFix" result="shape"/>
<feGaussianBlur stdDeviation="5" result="effect1_foregroundBlur_76_348"/>
</filter>
<clipPath id="clip0_76_348">
<rect width="111.223" height="131.107" fill="white"/>
</clipPath>
</defs>
</svg>
