<svg width="129" height="129" viewBox="0 0 129 129" fill="none" xmlns="http://www.w3.org/2000/svg">
<g clip-path="url(#clip0_205_991)">
<path d="M72.2693 52.7256C71.6628 52.2942 71.5208 51.4529 71.9522 50.8463C72.3836 50.2398 73.2249 50.0978 73.8315 50.5292C74.438 50.9606 74.58 51.802 74.1486 52.4085C73.7172 53.015 72.8758 53.157 72.2693 52.7256Z" fill="black"/>
<path d="M56.2302 75.2757C55.6237 74.8443 55.4817 74.0029 55.9131 73.3964C56.3445 72.7899 57.1859 72.6479 57.7924 73.0793C58.3989 73.5106 58.5409 74.352 58.1095 74.9586C57.6781 75.5651 56.8368 75.7071 56.2302 75.2757Z" fill="black"/>
<path d="M33.4236 41.3479C32.8171 40.9166 32.6751 40.0752 33.1065 39.4686C33.5379 38.8621 34.3792 38.7201 34.9858 39.1515C35.5923 39.5829 35.7343 40.4243 35.3029 41.0308C34.8715 41.6374 34.0301 41.7793 33.4236 41.3479Z" fill="black"/>
<path d="M95.7634 85.6871C95.1569 85.2557 95.0149 84.4143 95.4463 83.8078C95.8777 83.2012 96.7191 83.0592 97.3256 83.4906C97.9321 83.922 98.0741 84.7634 97.6427 85.3699C97.2113 85.9765 96.37 86.1184 95.7634 85.6871Z" fill="black"/>
<path d="M49.8103 48.4004C49.2038 47.9691 49.0618 47.1277 49.4932 46.5211C49.9246 45.9146 50.766 45.7726 51.3725 46.204C51.979 46.6354 52.121 47.4768 51.6896 48.0833C51.2582 48.6898 50.4168 48.8318 49.8103 48.4004Z" fill="black"/>
<path d="M83.7244 72.5225C83.1178 72.0911 82.9759 71.2497 83.4072 70.6432C83.8386 70.0367 84.68 69.8947 85.2866 70.3261C85.8931 70.7575 86.0351 71.5989 85.6037 72.2054C85.1723 72.8119 84.3309 72.9539 83.7244 72.5225Z" fill="black"/>
<path d="M18.3019 61.6391L81.5589 106.63C83.3785 107.924 83.8044 110.448 82.5102 112.268C81.2161 114.088 78.6919 114.514 76.8723 113.219L13.6153 68.2284C11.7957 66.9342 11.3698 64.4101 12.6639 62.5905C13.9581 60.7709 16.4823 60.345 18.3019 61.6391Z" fill="#FED030"/>
<path d="M18.3016 61.639L20.498 63.2012C19.6243 62.5797 18.5394 62.3308 17.4821 62.5092C16.4247 62.6876 15.4816 63.2787 14.8601 64.1525C14.2387 65.0263 13.9897 66.1112 14.1682 67.1685C14.3466 68.2258 14.9377 69.169 15.8115 69.7904L13.6151 68.2283C12.7413 67.6068 12.1501 66.6636 11.9717 65.6063C11.7933 64.549 12.0422 63.4641 12.6637 62.5903C13.2852 61.7165 14.2283 61.1254 15.2856 60.947C16.3429 60.7686 17.4278 61.0175 18.3016 61.639Z" fill="#F8BE32"/>
<path d="M80.7895 106.083C85.3215 101.648 89.8547 97.2141 94.3889 92.7818L106.261 81.9739L93.3724 79.0912L93.3642 79.1647C93.4396 79.9864 93.2777 80.8125 92.8976 81.545C92.5176 82.2774 91.9354 82.8854 91.2201 83.2969C90.5049 83.7083 89.6866 83.9059 88.8624 83.8663C88.0382 83.8266 87.2427 83.5513 86.5703 83.073C85.8978 82.5948 85.3767 81.9336 85.0688 81.1681C84.7609 80.4025 84.679 79.5647 84.833 78.7541C84.987 77.9434 85.3703 77.1939 85.9374 76.5946C86.5046 75.9952 87.2318 75.5712 88.0328 75.3728L88.101 75.3419C90.132 71.0975 92.1628 66.8523 94.1935 62.6062L80.7115 67.4402C80.4655 68.2332 80.0479 68.9623 79.4882 69.5756C77.5675 71.656 74.7296 71.4236 74.3995 71.3916C73.1769 71.2648 72.0148 70.7955 71.047 70.0377C70.0792 69.2799 69.3448 68.2643 68.9284 67.1078C67.7831 63.8413 69.8623 61.1041 70.0969 60.8146C71.8204 58.627 74.8034 57.6726 77.7132 58.3619L83.0862 37.5975L83.01 37.5434L65.1629 49.4356C66.7688 51.9582 66.8462 55.0892 65.3453 57.435C65.1444 57.7485 63.2409 60.6107 59.7839 60.6039C58.5548 60.5897 57.3547 60.2289 56.3214 59.5631C55.2882 58.8973 54.4638 57.9534 53.9431 56.84C53.8046 56.5386 52.6517 53.937 53.9888 51.4371C54.3844 50.7072 54.9361 50.0734 55.6045 49.5809L55.7468 35.2591C52.4039 38.5704 49.0601 41.8818 45.7155 45.1934L45.7087 45.268C45.7841 46.0897 45.6222 46.9158 45.2421 47.6482C44.8621 48.3806 44.2799 48.9886 43.5646 49.4001C42.8494 49.8116 42.0311 50.0092 41.2069 49.9695C40.3827 49.9298 39.5872 49.6545 38.9147 49.1763C38.2423 48.698 37.7212 48.0369 37.4133 47.2713C37.1054 46.5058 37.0235 45.668 37.1775 44.8573C37.3315 44.0466 37.7148 43.2972 38.2819 42.6978C38.8491 42.0985 39.5763 41.6744 40.3773 41.476L40.444 41.4441L33.4862 30.2134L27.1702 44.9841C24.4695 50.722 21.7687 56.4591 19.0677 62.1953L80.7895 106.083Z" fill="#FED030"/>
<path d="M76.4544 58.1647C76.9132 57.9605 77.3911 57.8026 77.8812 57.6933C77.8246 57.9155 77.7655 58.138 77.709 58.3602C77.2964 58.263 76.877 58.1976 76.4544 58.1647ZM49.4698 44.5574L49.4631 44.632C49.5276 45.3342 49.419 46.0414 49.1468 46.6919C48.8746 47.3423 48.4471 47.9161 47.9016 48.3629C47.3562 48.8098 46.7095 49.116 46.0182 49.2549C45.3269 49.3938 44.6121 49.3611 43.9364 49.1596C44.5444 48.7209 45.0275 48.1313 45.338 47.4489C45.6486 46.7665 45.7759 46.0149 45.7074 45.2683L45.7141 45.1937C49.058 41.8832 52.4009 38.571 55.7426 35.2574C55.7307 36.2971 55.7206 37.3365 55.7121 38.3757L49.4698 44.5574ZM68.9226 48.8013C70.5286 51.3239 70.606 54.4549 69.1051 56.8007C68.9041 57.1142 67.0007 59.9764 63.5437 59.9696C63.2413 59.9684 62.9394 59.9453 62.6403 59.9004C63.7313 59.3132 64.6619 58.4678 65.3508 57.4381C66.8517 55.0922 66.7744 51.9612 65.1684 49.4387L83.0112 37.5433L83.0873 37.5975L82.531 39.7375L68.9226 48.8013Z" fill="#F8BE32"/>
<path d="M35.5526 33.5395C34.0083 37.1452 32.4678 40.7455 30.9312 44.3404L24.1085 58.8345C23.7494 59.5976 23.6702 60.4627 23.8846 61.2783C24.099 62.0939 24.5934 62.8082 25.2814 63.296L82.7471 104.168L80.7896 106.083L19.0701 62.1858L27.1726 44.9746L33.4886 30.2039L35.5526 33.5395ZM84.4702 66.8058C84.2243 67.5989 83.8066 68.3279 83.2469 68.9412C81.3262 71.0216 78.4883 70.7892 78.1582 70.7573C78.0886 70.7497 78.0212 70.7392 77.9555 70.7322C78.5332 70.4434 79.054 70.0526 79.4927 69.5786C80.0524 68.9653 80.47 68.2362 80.716 67.4432L94.1936 62.606L93.7821 63.4666L84.4702 66.8058ZM95.9737 81.8761C95.4253 82.4603 94.7249 82.8801 93.9512 83.0885C93.1775 83.2969 92.361 83.2856 91.5933 83.0559C92.2013 82.6172 92.6844 82.0276 92.995 81.3452C93.3056 80.6628 93.4328 79.9112 93.3643 79.1646L93.3725 79.0911L97.0338 79.9113C96.859 80.6479 96.4934 81.3255 95.9737 81.8761Z" fill="#F8BE32"/>
<path d="M53.6786 78.8631C51.0504 76.9937 50.4351 73.3477 52.3045 70.7194C54.1738 68.0911 57.8198 67.4759 60.4481 69.3452C63.0764 71.2146 63.6916 74.8606 61.8223 77.4889C59.953 80.1172 56.3069 80.7324 53.6786 78.8631Z" fill="#EB304A"/>
<path d="M60.4487 69.3454C60.8184 69.6086 61.1561 69.914 61.4552 70.2553C60.2373 69.7618 58.8885 69.6935 57.6269 70.0614C56.3654 70.4294 55.2648 71.2121 54.5031 72.283C53.7415 73.3538 53.3633 74.6503 53.4297 75.9628C53.4961 77.2752 54.0032 78.5269 54.869 79.5154C54.1051 79.2059 53.4153 78.7381 52.845 78.1428C52.2748 77.5475 51.8371 76.8382 51.5606 76.0616C51.2841 75.285 51.1752 74.4587 51.241 73.637C51.3068 72.8153 51.5458 72.0168 51.9423 71.2941C52.3388 70.5714 52.8838 69.9408 53.5415 69.4439C54.1992 68.9469 54.9546 68.5948 55.7581 68.4107C56.5616 68.2266 57.395 68.2147 58.2035 68.3758C59.0119 68.5369 59.7771 68.8674 60.4487 69.3454Z" fill="#E4222E"/>
<path d="M30.4624 58.4918C29.2494 57.629 28.9654 55.9462 29.8282 54.7332C30.6909 53.5201 32.3737 53.2362 33.5868 54.0989C34.7998 54.9617 35.0838 56.6445 34.221 57.8576C33.3582 59.0706 31.6755 59.3546 30.4624 58.4918Z" fill="#EB304A"/>
<path d="M33.5876 54.0989C33.7465 54.2124 33.8925 54.3429 34.0231 54.488C33.4583 54.2501 32.8293 54.2118 32.2398 54.3793C31.6503 54.5469 31.1355 54.9103 30.7802 55.4097C30.425 55.9092 30.2506 56.5147 30.2858 57.1266C30.321 57.7384 30.5636 58.32 30.9737 58.7754C30.6243 58.6283 30.3098 58.409 30.051 58.132C29.7921 57.855 29.5945 57.5265 29.4712 57.168C29.348 56.8095 29.3017 56.429 29.3355 56.0513C29.3693 55.6737 29.4824 55.3074 29.6673 54.9765C29.8523 54.6455 30.105 54.3574 30.409 54.1307C30.7129 53.9041 31.0613 53.7442 31.4313 53.6613C31.8012 53.5785 32.1845 53.5747 32.5561 53.6501C32.9277 53.7255 33.2791 53.8784 33.5876 54.0989Z" fill="#E4222E"/>
<path d="M80.5405 94.1095C79.3275 93.2467 79.0435 91.5639 79.9063 90.3509C80.7691 89.1378 82.4519 88.8538 83.6649 89.7166C84.878 90.5794 85.1619 92.2622 84.2991 93.4752C83.4364 94.6883 81.7536 94.9722 80.5405 94.1095Z" fill="#EB304A"/>
<path d="M66.7235 88.4252L74.0219 86.1653L73.7617 78.5295L66.4633 80.7893L66.7235 88.4252Z" fill="#1CABE1"/>
<path d="M73.7612 78.5295L73.8398 80.7441L69.9724 81.9404C69.5959 82.057 69.2681 82.2942 69.0397 82.6154C68.8112 82.9367 68.6947 83.3241 68.7081 83.7181L68.8408 87.7726L66.7199 88.4295L66.4628 80.7893L73.7612 78.5295Z" fill="#199AD5"/>
<path d="M40.3661 69.6788L47.6645 67.419L47.4043 59.7832L40.1059 62.043L40.3661 69.6788Z" fill="#1CABE1"/>
<path d="M47.4037 59.7834L47.4824 61.998L43.615 63.1943C43.2385 63.3109 42.9107 63.5481 42.6822 63.8694C42.4538 64.1906 42.3373 64.578 42.3507 64.972L42.4834 69.0265L40.3624 69.6834L40.1053 62.0432L47.4037 59.7834Z" fill="#199AD5"/>
<path d="M72.2693 52.7256C71.6628 52.2942 71.5208 51.4529 71.9522 50.8463C72.3836 50.2398 73.2249 50.0978 73.8315 50.5292C74.438 50.9606 74.58 51.802 74.1486 52.4085C73.7172 53.015 72.8758 53.157 72.2693 52.7256Z" fill="#EB304A"/>
<path d="M56.2302 75.2757C55.6237 74.8443 55.4817 74.0029 55.9131 73.3964C56.3445 72.7899 57.1859 72.6479 57.7924 73.0793C58.3989 73.5106 58.5409 74.352 58.1095 74.9586C57.6781 75.5651 56.8368 75.7071 56.2302 75.2757Z" fill="white"/>
<path d="M33.4236 41.3479C32.8171 40.9166 32.6751 40.0752 33.1065 39.4686C33.5379 38.8621 34.3792 38.7201 34.9858 39.1515C35.5923 39.5829 35.7343 40.4243 35.3029 41.0308C34.8715 41.6374 34.0301 41.7793 33.4236 41.3479Z" fill="#EB304A"/>
<path d="M95.7634 85.6871C95.1569 85.2557 95.0149 84.4143 95.4463 83.8078C95.8777 83.2012 96.7191 83.0592 97.3256 83.4906C97.9321 83.922 98.0741 84.7634 97.6427 85.3699C97.2113 85.9765 96.37 86.1184 95.7634 85.6871Z" fill="#EB304A"/>
<path d="M49.8103 48.4004C49.2038 47.9691 49.0618 47.1277 49.4932 46.5211C49.9246 45.9146 50.766 45.7726 51.3725 46.204C51.979 46.6354 52.121 47.4768 51.6896 48.0833C51.2582 48.6898 50.4168 48.8318 49.8103 48.4004Z" fill="#1CABE1"/>
<path d="M83.7244 72.5225C83.1178 72.0911 82.9759 71.2497 83.4072 70.6432C83.8386 70.0367 84.68 69.8947 85.2866 70.3261C85.8931 70.7575 86.0351 71.5989 85.6037 72.2054C85.1723 72.8119 84.3309 72.9539 83.7244 72.5225Z" fill="#1CABE1"/>
<path d="M83.6657 89.7166C83.8246 89.8301 83.9706 89.9605 84.1012 90.1057C83.5364 89.8678 82.9074 89.8294 82.3179 89.997C81.7284 90.1645 81.2136 90.528 80.8584 91.0274C80.5032 91.5268 80.3288 92.1324 80.3639 92.7442C80.3991 93.3561 80.6417 93.9377 81.0518 94.3931C80.7024 94.2459 80.388 94.0267 80.1291 93.7497C79.8702 93.4727 79.6727 93.1442 79.5494 92.7857C79.4261 92.4271 79.3798 92.0466 79.4136 91.669C79.4474 91.2914 79.5605 90.9251 79.7455 90.5942C79.9304 90.2632 80.1832 89.975 80.4871 89.7484C80.7911 89.5218 81.1394 89.3618 81.5094 89.279C81.8794 89.1962 82.2627 89.1924 82.6342 89.2678C83.0058 89.3432 83.3573 89.4961 83.6657 89.7166Z" fill="#E4222E"/>
</g>
<defs>
<clipPath id="clip0_205_991">
<rect width="92" height="92" fill="white" transform="matrix(-0.814905 -0.579594 -0.579594 0.814905 128.293 53.3228)"/>
</clipPath>
</defs>
</svg>
