<svg width="178" height="228" viewBox="0 0 178 228" fill="none" xmlns="http://www.w3.org/2000/svg">
<path d="M5.34246 119.183C27.1129 77.1432 57.8917 59.1263 88.6708 1.32202C118.699 60.6277 151.729 78.6446 172.749 116.18C197.522 198.757 112.693 199.508 95.4271 166.477C92.2049 191.213 122.452 226.533 122.452 226.533H57.8916C57.8916 226.533 85.4482 190.197 81.1637 166.477C70.6541 195.004 -18.6802 204.012 5.34246 119.183Z" fill="#0A0A0A" stroke="white" stroke-width="1.25008" stroke-linejoin="round"/>
<path d="M15.6888 118.552C35.3709 78.6441 61.8646 65.702 88.9106 14.8342C115.297 67.0232 144.321 82.8781 162.792 115.909C184.56 188.577 106.846 184.283 91.6742 155.216C86.4189 209.267 101.433 217.524 101.433 217.524H75.1587C75.1587 217.524 91.6742 211.519 86.4189 155.216C77.4104 180.74 -5.42028 193.202 15.6888 118.552Z" fill="#0A0A0A" stroke="white" stroke-width="1.25008" stroke-linejoin="round"/>
<path d="M22.716 118.341C40.0205 84.6345 64.4855 70.1889 88.9506 23.8428C112.819 71.3927 139.073 85.8383 155.781 115.933C175.473 182.142 112.904 178.697 99.1802 152.213L89.421 146.208L78.1605 152.213C69.8067 175.085 3.62127 186.355 22.716 118.341Z" fill="#0A0A0A" stroke="white" stroke-width="1.25008" stroke-linejoin="round"/>
<path d="M57.1413 128.942H64.6484V165.373L49.8553 170.039L57.1413 128.942Z" fill="white"/>
<path d="M79.6616 112.426H85.6672V148.347L78.1602 152.214L79.6616 112.426Z" fill="white"/>
<path d="M93.1738 112.426H100.681L99.9302 152.964L93.1738 147.904V112.426Z" fill="white"/>
<path d="M115.695 128.942L122.452 127.44L129.369 169.941L115.695 166.477V128.942Z" fill="white"/>
<path d="M79.6618 115.158C79.6618 121.258 77.0583 126.639 73.0931 129.833C72.6149 130.218 72.1168 130.572 71.6011 130.891C69.5333 132.17 67.1821 132.682 64.6879 132.689C64.6745 132.689 61.7122 132.689 64.6477 132.689C63.8497 132.689 63.0662 132.616 62.3018 132.474C59.6654 131.985 56.2023 129.802 54.7947 128.468C54.0918 127.802 53.9783 127.607 53.3872 126.804C52.304 125.334 51.354 123.65 50.725 121.813C50.5395 121.271 50.3759 120.716 50.2356 120.15C49.8438 118.566 49.6336 116.891 49.6336 115.158C49.6336 114.021 49.7241 112.909 49.8971 111.831C49.9877 111.266 50.1009 110.711 50.2356 110.167C52.0598 102.796 57.8218 97.412 64.6477 97.412C72.9398 97.412 79.6618 105.357 79.6618 115.158Z" fill="white"/>
<path d="M53.3872 126.804L22.6083 155.216L25.6111 161.222L31.6167 165.726L54.7947 128.468C54.0918 127.802 53.9783 127.607 53.3872 126.804Z" fill="white"/>
<path d="M50.2356 120.15L21.8576 122.936L20.3562 130.891L19.6055 140.202L50.725 121.813C50.5395 121.271 50.3759 120.716 50.2356 120.15Z" fill="white"/>
<path d="M50.2356 110.167L33.8688 100.415L28.0509 109.613L49.8971 111.831C49.9877 111.266 50.1009 110.711 50.2356 110.167Z" fill="white"/>
<path d="M76.659 44.8627L81.9139 36.605L87.1688 69.636L76.659 44.8627Z" fill="white"/>
<mask id="path-9-inside-1_111_1106" fill="white">
<path d="M79.6629 115.159C79.6629 121.258 77.0594 126.639 73.0943 129.833C72.616 130.219 72.1179 130.572 71.6022 130.891C69.5344 132.171 67.1832 132.682 64.689 132.69C64.6756 132.69 61.7134 132.69 64.6489 132.69C63.8508 132.69 63.0673 132.616 62.3029 132.474C59.6665 131.985 56.2034 129.802 54.7959 128.469C54.0929 127.802 53.9794 127.607 53.3883 126.805C52.3051 125.334 51.3551 123.65 50.7261 121.814C50.5406 121.272 50.377 120.717 50.2367 120.15C49.8449 118.567 49.6348 116.892 49.6348 115.159C49.6348 114.021 49.7253 112.909 49.8983 111.831C49.9888 111.267 50.1021 110.712 50.2367 110.168C52.0609 102.796 57.8229 97.4124 64.6489 97.4124C72.9409 97.4124 79.6629 105.358 79.6629 115.159Z"/>
</mask>
<path d="M79.6629 115.159C79.6629 121.258 77.0594 126.639 73.0943 129.833C72.616 130.219 72.1179 130.572 71.6022 130.891C69.5344 132.171 67.1832 132.682 64.689 132.69C64.6756 132.69 61.7134 132.69 64.6489 132.69C63.8508 132.69 63.0673 132.616 62.3029 132.474C59.6665 131.985 56.2034 129.802 54.7959 128.469C54.0929 127.802 53.9794 127.607 53.3883 126.805C52.3051 125.334 51.3551 123.65 50.7261 121.814C50.5406 121.272 50.377 120.717 50.2367 120.15C49.8449 118.567 49.6348 116.892 49.6348 115.159C49.6348 114.021 49.7253 112.909 49.8983 111.831C49.9888 111.267 50.1021 110.712 50.2367 110.168C52.0609 102.796 57.8229 97.4124 64.6489 97.4124C72.9409 97.4124 79.6629 105.358 79.6629 115.159Z" fill="#0A0A0A"/>
<path d="M64.6489 132.69L64.4923 132.085L64.6497 133.315L64.6489 132.69ZM64.8054 133.295L71.7587 131.496L71.4457 130.286L64.4923 132.085L64.8054 133.295ZM64.6881 132.065L64.648 132.065L64.6497 133.315L64.6899 133.315L64.6881 132.065ZM64.6489 132.69V133.94L64.6489 131.44L64.6489 132.69ZM50.2367 110.168L51.4502 110.468L50.2367 110.168ZM49.8983 111.831L48.664 111.633L49.8983 111.831ZM50.2367 120.15L49.0233 120.45L50.2367 120.15ZM50.7261 121.814L51.9088 121.409H51.9088L50.7261 121.814ZM53.3883 126.805L54.3949 126.064L53.3883 126.805ZM54.7959 128.469L53.9361 129.376L54.7959 128.469ZM62.3029 132.474L62.0749 133.703L62.3029 132.474ZM71.6022 130.891L72.2599 131.954L71.6022 130.891ZM73.0943 129.833L73.8785 130.807L73.0943 129.833ZM64.689 132.69L64.6852 131.44H64.6851L64.689 132.69ZM64.6489 98.6624C72.0627 98.6624 78.4129 105.844 78.4129 115.159H80.913C80.913 104.871 73.8191 96.1623 64.6489 96.1623V98.6624ZM51.4502 110.468C53.1725 103.508 58.5357 98.6624 64.6489 98.6624V96.1623C57.1102 96.1623 50.9494 102.084 49.0233 109.867L51.4502 110.468ZM50.8848 115.159C50.8848 114.088 50.9701 113.042 51.1325 112.029L48.664 111.633C48.4805 112.777 48.3847 113.955 48.3847 115.159H50.8848ZM51.1325 112.029C51.2176 111.499 51.3239 110.978 51.4502 110.468L49.0233 109.867C48.8802 110.445 48.7601 111.034 48.664 111.633L51.1325 112.029ZM51.4502 119.85C51.0827 118.365 50.8848 116.791 50.8848 115.159H48.3847C48.3847 116.993 48.6071 118.769 49.0233 120.45L51.4502 119.85ZM51.9088 121.409C51.7351 120.901 51.5818 120.381 51.4502 119.85L49.0233 120.45C49.1723 121.052 49.3461 121.642 49.5435 122.219L51.9088 121.409ZM54.3949 126.064C53.3729 124.676 52.4894 123.104 51.9088 121.409L49.5435 122.219C50.2208 124.196 51.2374 125.992 52.3817 127.546L54.3949 126.064ZM55.6557 127.561C55.0425 126.98 54.9874 126.868 54.3949 126.064L52.3817 127.546C52.9714 128.347 53.1432 128.625 53.9361 129.376L55.6557 127.561ZM64.6489 131.44C63.9279 131.44 63.2207 131.373 62.5309 131.245L62.0749 133.703C62.9139 133.859 63.7737 133.94 64.6489 133.94V131.44ZM62.5309 131.245C61.4077 131.037 60.0212 130.443 58.7028 129.699C57.3903 128.959 56.2638 128.137 55.6557 127.561L53.9361 129.376C54.7355 130.133 56.0443 131.07 57.4743 131.877C58.8984 132.68 60.5617 133.423 62.0749 133.703L62.5309 131.245ZM78.4129 115.159C78.4129 120.913 75.9561 125.923 72.31 128.86L73.8785 130.807C78.1628 127.356 80.913 121.604 80.913 115.159H78.4129ZM72.31 128.86C71.8711 129.214 71.4151 129.537 70.9445 129.828L72.2599 131.954C72.8207 131.607 73.3609 131.224 73.8785 130.807L72.31 128.86ZM64.6851 131.44C64.686 131.44 64.642 131.44 64.563 131.44C64.4865 131.44 64.3812 131.44 64.2643 131.44C64.0306 131.44 63.7508 131.44 63.5631 131.44C63.4693 131.44 63.3985 131.44 63.368 131.44C63.3604 131.44 63.3552 131.44 63.3528 131.44C63.3523 131.44 63.3517 131.44 63.3513 131.44C63.3512 131.44 63.351 131.44 63.3508 131.44C63.3506 131.44 63.3497 131.44 63.3491 131.44C62.1046 132.602 63.261 133.937 63.3491 133.94C63.3498 133.94 63.3506 133.94 63.3508 133.94C63.3515 133.94 63.353 133.94 63.3546 133.94C63.3617 133.94 63.3811 133.94 63.4148 133.94C63.5497 133.94 63.915 133.94 64.6488 133.94L64.6489 131.44C63.915 131.44 63.5497 131.44 63.4149 131.44C63.3811 131.44 63.3619 131.44 63.3549 131.44C63.3529 131.44 63.3523 131.44 63.3525 131.44C63.3527 131.44 63.3535 131.44 63.3541 131.44C63.4421 131.443 64.5986 132.778 63.3541 133.94C63.3535 133.94 63.3527 133.94 63.3525 133.94C63.3524 133.94 63.3523 133.94 63.3523 133.94C63.3523 133.94 63.3523 133.94 63.3523 133.94C63.3524 133.94 63.3524 133.94 63.3525 133.94C63.3527 133.94 63.3529 133.94 63.3532 133.94C63.3554 133.94 63.3604 133.94 63.3681 133.94C63.3985 133.94 63.4693 133.94 63.5631 133.94C63.9358 133.94 64.6837 133.94 64.693 133.94L64.6851 131.44ZM70.9445 129.828C69.1206 130.957 67.0112 131.432 64.6852 131.44L64.6929 133.94C67.3552 133.932 69.9483 133.385 72.2599 131.954L70.9445 129.828Z" fill="white" mask="url(#path-9-inside-1_111_1106)"/>
<path d="M99.1793 113.657C99.1793 119.757 101.783 125.137 105.748 128.332C106.226 128.717 106.724 129.071 107.24 129.39C109.308 130.669 111.659 131.18 114.153 131.188C114.167 131.188 117.129 131.188 114.193 131.188C114.991 131.188 115.775 131.114 116.539 130.973C119.176 130.484 122.639 128.3 124.046 126.967C124.749 126.301 124.863 126.106 125.454 125.303C126.537 123.832 127.487 122.148 128.116 120.312C128.302 119.77 128.465 119.215 128.605 118.648C128.997 117.065 129.207 115.39 129.207 113.657C129.207 112.52 129.117 111.407 128.944 110.33C128.853 109.765 128.74 109.21 128.605 108.666C126.781 101.295 121.019 95.9106 114.193 95.9106C105.901 95.9106 99.1793 103.856 99.1793 113.657Z" fill="white"/>
<path d="M125.454 125.303L155.482 155.967L151.259 162.723L145.723 166.477L124.046 126.967C124.749 126.301 124.863 126.106 125.454 125.303Z" fill="white"/>
<path d="M128.605 118.648L156.984 122.185L158.485 129.39L159.986 142.454L128.116 120.312C128.302 119.77 128.465 119.215 128.605 118.648Z" fill="white"/>
<path d="M128.605 108.666L144.222 98.1628L150.79 108.111L128.944 110.33C128.853 109.765 128.74 109.21 128.605 108.666Z" fill="white"/>
<path d="M96.1765 37.3557L101.431 45.6135L89.4201 67.3839L96.1765 37.3557Z" fill="white"/>
<mask id="path-12-inside-2_111_1106" fill="white">
<path d="M129.772 115.423C129.772 121.523 127.169 126.904 123.204 130.098C122.725 130.483 122.227 130.837 121.712 131.156C119.644 132.435 117.293 132.947 114.798 132.954C114.785 132.954 111.823 132.954 114.758 132.954C113.96 132.954 113.177 132.881 112.412 132.739C109.776 132.25 106.313 130.067 104.905 128.733C104.202 128.067 104.089 127.872 103.498 127.069C102.414 125.599 101.464 123.915 100.836 122.078C100.65 121.536 100.486 120.981 100.346 120.415C99.9543 118.831 99.7441 117.156 99.7441 115.423C99.7441 114.286 99.8347 113.174 100.008 112.096C100.098 111.531 100.211 110.976 100.346 110.432C102.17 103.061 107.932 97.677 114.758 97.677C123.05 97.677 129.772 105.622 129.772 115.423Z"/>
</mask>
<path d="M129.772 115.423C129.772 121.523 127.169 126.904 123.204 130.098C122.725 130.483 122.227 130.837 121.712 131.156C119.644 132.435 117.293 132.947 114.798 132.954C114.785 132.954 111.823 132.954 114.758 132.954C113.96 132.954 113.177 132.881 112.412 132.739C109.776 132.25 106.313 130.067 104.905 128.733C104.202 128.067 104.089 127.872 103.498 127.069C102.414 125.599 101.464 123.915 100.836 122.078C100.65 121.536 100.486 120.981 100.346 120.415C99.9543 118.831 99.7441 117.156 99.7441 115.423C99.7441 114.286 99.8347 113.174 100.008 112.096C100.098 111.531 100.211 110.976 100.346 110.432C102.17 103.061 107.932 97.677 114.758 97.677C123.05 97.677 129.772 105.622 129.772 115.423Z" fill="#0A0A0A"/>
<path d="M114.758 132.954L114.602 132.349L114.759 133.579L114.758 132.954ZM114.915 133.56L121.868 131.761L121.555 130.551L114.602 132.349L114.915 133.56ZM114.798 132.329L114.757 132.329L114.759 133.579L114.799 133.579L114.798 132.329ZM114.758 132.954V134.204L114.758 131.704L114.758 132.954ZM100.346 110.432L101.56 110.733L100.346 110.432ZM100.008 112.096L98.7733 111.898L100.008 112.096ZM100.346 120.415L99.1326 120.715L100.346 120.415ZM100.836 122.078L102.018 121.673H102.018L100.836 122.078ZM103.498 127.069L104.504 126.328L103.498 127.069ZM104.905 128.733L104.045 129.641L104.905 128.733ZM112.412 132.739L112.184 133.968L112.412 132.739ZM121.712 131.156L122.369 132.219L121.712 131.156ZM123.204 130.098L123.988 131.072L123.204 130.098ZM114.798 132.954L114.795 131.704H114.794L114.798 132.954ZM114.758 98.9271C122.172 98.9271 128.522 106.109 128.522 115.423H131.022C131.022 105.136 123.928 96.4269 114.758 96.4269V98.9271ZM101.56 110.733C103.282 103.773 108.645 98.9271 114.758 98.9271V96.4269C107.22 96.4269 101.059 102.349 99.1326 110.132L101.56 110.733ZM100.994 115.423C100.994 114.352 101.079 113.306 101.242 112.294L98.7733 111.898C98.5899 113.041 98.4941 114.22 98.4941 115.423H100.994ZM101.242 112.294C101.327 111.764 101.433 111.243 101.56 110.733L99.1326 110.132C98.9896 110.71 98.8694 111.299 98.7733 111.898L101.242 112.294ZM101.56 120.114C101.192 118.629 100.994 117.055 100.994 115.423H98.4941C98.4941 117.257 98.7165 119.033 99.1326 120.715L101.56 120.114ZM102.018 121.673C101.844 121.166 101.691 120.646 101.56 120.114L99.1326 120.715C99.2816 121.317 99.4555 121.907 99.6529 122.483L102.018 121.673ZM104.504 126.328C103.482 124.94 102.599 123.369 102.018 121.673L99.6529 122.483C100.33 124.461 101.347 126.257 102.491 127.811L104.504 126.328ZM105.765 127.826C105.152 127.245 105.097 127.133 104.504 126.328L102.491 127.811C103.081 128.611 103.253 128.889 104.045 129.641L105.765 127.826ZM114.758 131.704C114.037 131.704 113.33 131.638 112.64 131.51L112.184 133.968C113.023 134.124 113.883 134.204 114.758 134.204V131.704ZM112.64 131.51C111.517 131.302 110.131 130.708 108.812 129.964C107.5 129.224 106.373 128.402 105.765 127.826L104.045 129.641C104.845 130.398 106.154 131.335 107.584 132.142C109.008 132.945 110.671 133.687 112.184 133.968L112.64 131.51ZM128.522 115.423C128.522 121.177 126.065 126.187 122.419 129.125L123.988 131.072C128.272 127.62 131.022 121.869 131.022 115.423H128.522ZM122.419 129.125C121.98 129.478 121.525 129.802 121.054 130.093L122.369 132.219C122.93 131.872 123.47 131.489 123.988 131.072L122.419 129.125ZM114.794 131.704C114.795 131.704 114.751 131.704 114.672 131.704C114.596 131.704 114.491 131.704 114.374 131.704C114.14 131.704 113.86 131.704 113.672 131.704C113.579 131.704 113.508 131.704 113.477 131.704C113.47 131.704 113.465 131.704 113.462 131.704C113.462 131.704 113.461 131.704 113.461 131.704C113.461 131.704 113.46 131.704 113.46 131.704C113.46 131.704 113.459 131.704 113.458 131.704C112.214 132.866 113.37 134.201 113.459 134.204C113.459 134.204 113.46 134.204 113.46 134.204C113.461 134.204 113.462 134.204 113.464 134.204C113.471 134.204 113.49 134.204 113.524 134.204C113.659 134.204 114.024 134.204 114.758 134.204L114.758 131.704C114.024 131.704 113.659 131.704 113.524 131.704C113.491 131.704 113.471 131.704 113.464 131.704C113.462 131.704 113.462 131.704 113.462 131.704C113.462 131.704 113.463 131.704 113.463 131.704C113.552 131.708 114.708 133.042 113.463 134.204C113.463 134.204 113.462 134.204 113.462 134.204C113.462 134.204 113.462 134.204 113.462 134.204C113.462 134.204 113.462 134.204 113.462 134.204C113.462 134.204 113.462 134.204 113.462 134.204C113.462 134.204 113.462 134.204 113.463 134.204C113.465 134.204 113.47 134.204 113.477 134.204C113.508 134.204 113.579 134.204 113.672 134.204C114.045 134.204 114.793 134.204 114.802 134.204L114.794 131.704ZM121.054 130.093C119.23 131.221 117.121 131.697 114.795 131.704L114.802 134.204C117.465 134.196 120.058 133.649 122.369 132.219L121.054 130.093Z" fill="white" mask="url(#path-12-inside-2_111_1106)"/>
<path d="M130.995 102.823C131.047 108.862 128.457 114.087 123.795 117.106C122.552 117.919 120.739 119.835 119.755 121.403C115.818 127.557 110.757 132.652 103.298 132.71L130.995 102.823ZM130.995 102.823C130.995 98.4689 130.011 95.5078 127.524 92.0822L130.995 102.823ZM80.8688 61.2961C84.3453 61.2378 87.6974 60.8325 89.3588 60.2127C92.5427 59.061 97.1311 59.4376 100.63 61.1185L100.638 61.1222L100.638 61.1221C102.063 61.7831 104.444 63.4804 105.921 64.7938C107.013 65.7841 107.851 66.4537 108.637 66.87C109.451 67.3014 110.188 67.4507 111.053 67.4507C114.534 67.4507 117.798 68.9287 120.705 71.9065C124.93 76.247 126.561 81.217 125.614 86.6921L125.613 86.6955C125.386 88.0526 125.249 88.9455 125.454 89.7846C125.659 90.6229 126.191 91.353 127.022 92.454C129.428 95.7711 130.37 98.6031 130.37 102.823V102.829C130.42 108.681 127.915 113.693 123.455 116.582L123.453 116.583C122.121 117.454 120.25 119.44 119.227 121.068C115.321 127.175 110.422 132.027 103.298 132.085L98.5197 132.055L98.2608 132.053L98.0766 132.235L90.2561 139.958L90.2559 139.958C86.7853 143.387 83.6652 145.828 81.427 147.284C80.3028 148.015 79.4232 148.483 78.8453 148.708C78.7658 148.739 78.6964 148.763 78.6364 148.783M80.8688 61.2961C80.8696 61.2961 80.8705 61.2961 80.8713 61.2961L80.8554 60.6712L80.8659 61.2962C80.8668 61.2962 80.8678 61.2962 80.8688 61.2961ZM80.8688 61.2961C76.3496 61.4115 73.0777 61.9579 70.2726 63.2157C67.4731 64.4709 65.0831 66.4596 62.3714 69.556M62.3714 69.556C60.4821 71.7904 57.6837 74.2875 56.0399 75.209M62.3714 69.556C62.3726 69.5546 62.3739 69.5531 62.3751 69.5516L61.8978 69.1481L62.368 69.5599C62.3691 69.5586 62.3703 69.5573 62.3714 69.556ZM56.0399 75.209C47.8365 79.8355 42.8711 90.4296 44.3863 100.113M56.0399 75.209C56.0403 75.2088 56.0406 75.2086 56.041 75.2084L55.7339 74.6639L56.0395 75.2092C56.0397 75.2091 56.0398 75.209 56.0399 75.209ZM44.3863 100.113C44.9979 103.941 46.0629 107.066 47.7718 109.848C49.4816 112.631 51.8553 115.102 55.1263 117.595M44.3863 100.113C44.3862 100.113 44.3861 100.112 44.3861 100.112L43.7689 100.211L44.3864 100.114C44.3863 100.114 44.3863 100.113 44.3863 100.113ZM55.1263 117.595C56.4264 118.566 57.5314 119.512 58.5086 120.36C58.6073 120.445 58.7045 120.53 58.8004 120.613C59.6613 121.361 60.4115 122.013 61.1276 122.545C62.6959 123.709 63.978 124.206 65.6331 123.78L65.6379 123.779C66.3207 123.608 67.0408 123.396 67.6497 123.185C68.2814 122.966 68.7271 122.77 68.9106 122.647L68.9244 122.638L68.9387 122.629C70.0591 121.959 71.7589 122.204 73.3334 123.969C74.1856 124.924 74.7227 125.805 75.1463 126.499C75.3159 126.777 75.4672 127.025 75.6133 127.236C75.8788 127.62 76.1471 127.926 76.5082 128.187C76.8715 128.449 77.3582 128.687 78.0829 128.89C78.6007 129.035 78.9288 129.484 79.1018 129.787C79.1987 129.957 79.2744 130.13 79.3273 130.283C79.3733 130.416 79.4239 130.596 79.4239 130.762C79.4239 130.756 79.4836 131.389 79.4338 132.445C79.3826 133.534 79.2187 135.163 78.7733 137.454C78.1654 140.581 78.1463 143.47 78.2805 145.603C78.3475 146.668 78.4525 147.542 78.5406 148.159C78.5765 148.411 78.6096 148.62 78.6364 148.783M55.1263 117.595C55.1255 117.594 55.1247 117.593 55.124 117.593L54.7498 118.093L55.1286 117.596C55.1278 117.596 55.127 117.595 55.1263 117.595ZM78.6364 148.783C78.6424 148.82 78.6482 148.854 78.6535 148.887C78.6588 148.918 78.6639 148.948 78.6686 148.976C78.6765 149.024 78.6835 149.065 78.6888 149.098C78.6931 149.124 78.6972 149.15 78.7004 149.173L78.7007 149.175C78.7023 149.186 78.7098 149.238 78.7098 149.291C78.7098 149.186 78.6608 149.028 78.5143 148.922C78.4043 148.843 78.3148 148.851 78.3392 148.851C78.3733 148.851 78.4676 148.837 78.6364 148.783Z" fill="#0A0A0A" stroke="white" stroke-width="1.25008"/>
<path fill-rule="evenodd" clip-rule="evenodd" d="M99.3197 63.152C100.652 63.8051 102.81 65.438 104.142 66.6898C106.071 68.5404 106.943 69.0302 108.321 69.0302C111.582 69.0302 114.613 70.4998 117.277 73.3845C121.135 77.5754 122.65 82.4195 121.778 87.7534C121.364 90.3659 121.41 90.5836 122.926 92.7063C125.13 95.9176 126.003 98.6934 126.003 102.775C126.049 108.436 123.752 113.334 119.619 116.165C118.517 116.927 116.909 118.723 116.037 120.192C112.546 125.962 107.908 128.574 101.294 128.629H97.1611L90.1344 135.976C83.9344 142.453 81.7759 144.358 81.7759 143.433C81.7759 143.324 82.0637 141.655 82.4744 139.274L82.4756 139.267C82.6784 138.092 82.911 136.743 83.1536 135.323C83.9344 131.078 84.5314 127.377 84.5314 127.214C84.5314 126.996 83.567 126.56 82.3729 126.234C79.6173 125.417 76.724 123.404 74.6573 120.954C73.3714 119.43 72.8662 119.158 72.1773 119.594C71.718 119.92 70.3402 120.41 69.1002 120.737C65.7017 121.662 62.9461 120.682 58.3994 117.09C52.5209 112.355 49.7653 107.62 48.6631 100.326C47.2853 91.0191 51.7861 80.8411 59.272 76.378C60.6498 75.5616 63.0839 73.2756 64.7372 71.2073C69.6054 65.3291 73.4632 63.4786 81.5462 63.2609C84.6233 63.2064 87.5166 62.8254 88.8944 62.2812C91.8796 61.1382 96.1048 61.5192 99.3197 63.152ZM90.8691 66.8529C90.6854 66.8529 90.5017 66.5808 90.5017 66.3086C90.5017 65.4922 95.1403 65.6555 97.4366 66.5808C100.1 67.6693 102.58 70.1186 104.096 73.1665L105.29 75.5613L103.637 77.7385C102.443 79.3169 101.983 80.4054 101.983 81.7661C101.983 85.9571 105.841 89.3316 109.148 88.0798C113.924 86.1748 114.383 78.5549 109.883 75.9968C109.194 75.6158 108.597 74.8538 108.505 74.3095C108.275 72.84 110.571 73.1665 113.327 75.0171C118.425 78.5004 120.078 86.8823 116.68 92.053C115.807 93.3592 115.715 93.3592 113.878 92.6517C111.49 91.672 109.423 92.3251 107.724 94.6655C104.877 98.6932 107.54 104.952 112.087 104.952C115.118 104.952 117.598 102.068 117.598 98.5299C117.598 97.6046 118.011 96.5161 118.7 95.7541L119.803 94.5567L120.675 96.0806C121.823 97.9856 122.65 100.87 122.65 102.721C122.65 108.98 118.057 114.368 112.73 114.368C109.745 114.368 109.331 114.042 109.331 111.756C109.331 109.361 107.494 106.803 105.198 105.987C103.728 105.442 103.177 105.497 101.662 106.368C99.3655 107.728 98.0795 110.558 98.4929 113.225C99.0899 117.09 102.718 119.43 105.887 118.069C106.989 117.634 108 117.634 110.02 118.124L112.73 118.723L110.755 120.791C104.096 127.812 92.5684 124.546 89.3995 114.695L88.6187 112.246L90.4558 110.014C91.9713 108.218 92.3388 107.402 92.3388 105.823C92.3388 99.5096 86.4143 96.7882 82.832 101.415C80.6276 104.19 80.7194 106.912 83.1076 110.014C84.072 111.32 85.2202 113.552 85.6795 115.185C86.6439 118.777 88.7106 122.043 91.558 124.546L93.7165 126.451L90.6395 129.771C88.8943 131.622 87.4247 133.037 87.3787 132.983C87.2869 132.874 87.5165 130.914 87.9298 128.628C88.3432 126.288 88.6647 124.111 88.6647 123.73C88.6647 123.295 87.6084 122.968 85.6795 122.75C80.6276 122.206 77.1372 119.376 74.9327 114.096C73.8764 111.701 73.509 110.014 73.509 108C73.509 103.592 73.7846 102.939 75.8972 102.558C78.515 102.068 80.8572 99.2375 80.8572 96.5705C80.8572 91.1821 76.9076 88.2975 72.7742 90.5834C70.2023 92.053 69.0542 96.1895 70.3401 99.0742C70.7075 99.945 70.7075 101.251 70.2942 104.136C69.7431 107.891 69.8808 109.796 71.029 114.532C71.2586 115.511 71.029 115.838 69.789 116.328C64.5075 118.505 58.8126 114.042 58.8126 107.619C58.8126 106.367 58.9963 106.041 59.8689 106.041C60.42 106.041 61.706 105.551 62.7623 105.007C66.3905 103.047 67.0334 97.8768 64.0482 94.5567C62.3489 92.7061 58.4911 92.6517 56.7919 94.5567C55.1845 96.3528 54.5874 98.802 55.1385 101.142C55.6896 103.483 55.7356 106.966 55.1845 107.347C54.5874 107.837 53.4393 105.497 52.5667 101.959C51.0052 95.4819 52.383 89.2227 56.5622 83.9977C60.0526 79.6434 63.0838 78.065 67.9979 78.0106C73.2335 78.0106 74.4275 78.446 74.4275 80.351C74.4275 82.637 75.989 85.1406 77.872 85.9026C80.3061 86.8279 82.3728 86.1748 84.0261 83.9432C86.3224 80.8408 85.8172 77.0853 82.7402 74.6361C80.9031 73.1665 79.4794 73.0577 77.5964 74.2551C76.4483 74.9082 75.7594 74.9626 73.8305 74.5272C72.4986 74.2007 70.6616 73.8197 69.6971 73.6564C67.9519 73.3298 67.9519 73.2754 68.7327 72.2412C69.192 71.6425 70.8912 70.3907 72.5446 69.411C75.3001 67.8326 75.9431 67.6693 79.9387 67.6693C83.7965 67.6693 84.6232 67.8326 87.195 69.2477C92.2928 72.0235 96.9314 79.4802 96.9314 84.8141C96.9314 86.1203 96.6558 86.5558 95.3699 87.2089C94.4514 87.6443 93.441 88.7329 93.0736 89.6582C89.9506 96.7338 97.8499 102.83 102.213 96.7338C104.004 94.1757 103.728 90.8011 101.524 87.8076C101.065 87.2089 100.56 85.3039 100.376 83.5622C99.9166 78.827 97.4366 73.4931 94.084 69.8464C92.5225 68.2136 91.0987 66.8529 90.8691 66.8529ZM78.1014 78.8273C77.3207 80.6234 78.2851 82.2018 80.0763 81.9841C81.2244 81.8752 81.5918 81.5487 81.6837 80.569C82.0052 77.9564 79.1118 76.5957 78.1014 78.8273ZM106.346 83.7258C105.427 82.8005 105.473 80.6234 106.484 79.9702C107.632 79.1538 108.183 79.2627 109.055 80.4057C110.112 81.7664 109.652 83.6169 108.137 84.0523C107.494 84.27 106.713 84.1068 106.346 83.7258ZM96.7475 90.965C95.0023 92.4345 96.8394 96.1356 98.6764 94.8293C99.7787 93.9585 99.9624 91.8358 98.952 90.965C98.4927 90.584 97.9875 90.2574 97.8498 90.2574C97.712 90.2574 97.2068 90.584 96.7475 90.965ZM74.1975 97.8769C73.4627 97.1694 73.279 95.1011 73.8301 94.3935C74.0138 94.1758 74.7946 94.067 75.5753 94.1758C76.7694 94.3391 76.9531 94.5568 77.0909 96.0808C77.2287 97.6048 77.045 97.8769 76.0346 98.2035C75.3457 98.4212 74.6109 98.2579 74.1975 97.8769ZM110.801 96.8974C109.239 98.748 111.077 101.796 113.005 100.599C114.613 99.5644 113.924 96.2443 112.087 96.2443C111.674 96.2443 111.122 96.5164 110.801 96.8974ZM60.4198 101.687C58.4449 101.687 57.756 99.5644 59.1338 97.7683C60.0523 96.5709 60.5575 96.5164 61.6598 97.7138C63.1294 99.2923 62.3946 101.687 60.4198 101.687ZM85.5415 103.755C85.1741 104.027 84.9904 104.953 85.0822 105.823C85.22 107.239 85.4037 107.402 86.8274 107.402C88.343 107.402 88.4349 107.293 88.4349 105.497C88.4349 103.864 88.2512 103.592 87.2867 103.429C86.6437 103.374 85.863 103.537 85.5415 103.755ZM102.902 114.205C101.891 113.552 101.662 111.538 102.534 110.504C103.315 109.579 104.555 109.688 105.382 110.722C105.807 111.226 106.013 111.456 106.064 111.717C106.111 111.963 106.019 112.235 105.841 112.79C105.382 114.205 103.958 114.858 102.902 114.205Z" fill="white"/>
</svg>
